G75*
%MOIN*%
%OFA0B0*%
%FSLAX25Y25*%
%IPPOS*%
%LPD*%
%AMOC8*
5,1,8,0,0,1.08239X$1,22.5*
%
%ADD10C,0.00000*%
%ADD11OC8,0.05200*%
%ADD12OC8,0.06300*%
%ADD13R,0.04799X0.08799*%
%ADD14R,0.14173X0.08661*%
%ADD15OC8,0.10000*%
%ADD16C,0.05150*%
%ADD17OC8,0.12500*%
%ADD18R,0.40984X0.42520*%
%ADD19R,0.08500X0.04200*%
%ADD20C,0.01600*%
%ADD21C,0.01200*%
%ADD22C,0.01000*%
%ADD23C,0.02400*%
D10*
X0001800Y0003050D02*
X0001800Y0290511D01*
X0173001Y0290511D01*
X0173001Y0003050D01*
X0001800Y0003050D01*
X0067331Y0090550D02*
X0067333Y0090638D01*
X0067339Y0090726D01*
X0067349Y0090814D01*
X0067363Y0090902D01*
X0067380Y0090988D01*
X0067402Y0091074D01*
X0067427Y0091158D01*
X0067457Y0091242D01*
X0067489Y0091324D01*
X0067526Y0091404D01*
X0067566Y0091483D01*
X0067610Y0091560D01*
X0067657Y0091635D01*
X0067707Y0091707D01*
X0067761Y0091778D01*
X0067817Y0091845D01*
X0067877Y0091911D01*
X0067939Y0091973D01*
X0068005Y0092033D01*
X0068072Y0092089D01*
X0068143Y0092143D01*
X0068215Y0092193D01*
X0068290Y0092240D01*
X0068367Y0092284D01*
X0068446Y0092324D01*
X0068526Y0092361D01*
X0068608Y0092393D01*
X0068692Y0092423D01*
X0068776Y0092448D01*
X0068862Y0092470D01*
X0068948Y0092487D01*
X0069036Y0092501D01*
X0069124Y0092511D01*
X0069212Y0092517D01*
X0069300Y0092519D01*
X0069388Y0092517D01*
X0069476Y0092511D01*
X0069564Y0092501D01*
X0069652Y0092487D01*
X0069738Y0092470D01*
X0069824Y0092448D01*
X0069908Y0092423D01*
X0069992Y0092393D01*
X0070074Y0092361D01*
X0070154Y0092324D01*
X0070233Y0092284D01*
X0070310Y0092240D01*
X0070385Y0092193D01*
X0070457Y0092143D01*
X0070528Y0092089D01*
X0070595Y0092033D01*
X0070661Y0091973D01*
X0070723Y0091911D01*
X0070783Y0091845D01*
X0070839Y0091778D01*
X0070893Y0091707D01*
X0070943Y0091635D01*
X0070990Y0091560D01*
X0071034Y0091483D01*
X0071074Y0091404D01*
X0071111Y0091324D01*
X0071143Y0091242D01*
X0071173Y0091158D01*
X0071198Y0091074D01*
X0071220Y0090988D01*
X0071237Y0090902D01*
X0071251Y0090814D01*
X0071261Y0090726D01*
X0071267Y0090638D01*
X0071269Y0090550D01*
X0071267Y0090462D01*
X0071261Y0090374D01*
X0071251Y0090286D01*
X0071237Y0090198D01*
X0071220Y0090112D01*
X0071198Y0090026D01*
X0071173Y0089942D01*
X0071143Y0089858D01*
X0071111Y0089776D01*
X0071074Y0089696D01*
X0071034Y0089617D01*
X0070990Y0089540D01*
X0070943Y0089465D01*
X0070893Y0089393D01*
X0070839Y0089322D01*
X0070783Y0089255D01*
X0070723Y0089189D01*
X0070661Y0089127D01*
X0070595Y0089067D01*
X0070528Y0089011D01*
X0070457Y0088957D01*
X0070385Y0088907D01*
X0070310Y0088860D01*
X0070233Y0088816D01*
X0070154Y0088776D01*
X0070074Y0088739D01*
X0069992Y0088707D01*
X0069908Y0088677D01*
X0069824Y0088652D01*
X0069738Y0088630D01*
X0069652Y0088613D01*
X0069564Y0088599D01*
X0069476Y0088589D01*
X0069388Y0088583D01*
X0069300Y0088581D01*
X0069212Y0088583D01*
X0069124Y0088589D01*
X0069036Y0088599D01*
X0068948Y0088613D01*
X0068862Y0088630D01*
X0068776Y0088652D01*
X0068692Y0088677D01*
X0068608Y0088707D01*
X0068526Y0088739D01*
X0068446Y0088776D01*
X0068367Y0088816D01*
X0068290Y0088860D01*
X0068215Y0088907D01*
X0068143Y0088957D01*
X0068072Y0089011D01*
X0068005Y0089067D01*
X0067939Y0089127D01*
X0067877Y0089189D01*
X0067817Y0089255D01*
X0067761Y0089322D01*
X0067707Y0089393D01*
X0067657Y0089465D01*
X0067610Y0089540D01*
X0067566Y0089617D01*
X0067526Y0089696D01*
X0067489Y0089776D01*
X0067457Y0089858D01*
X0067427Y0089942D01*
X0067402Y0090026D01*
X0067380Y0090112D01*
X0067363Y0090198D01*
X0067349Y0090286D01*
X0067339Y0090374D01*
X0067333Y0090462D01*
X0067331Y0090550D01*
X0136081Y0090550D02*
X0136083Y0090638D01*
X0136089Y0090726D01*
X0136099Y0090814D01*
X0136113Y0090902D01*
X0136130Y0090988D01*
X0136152Y0091074D01*
X0136177Y0091158D01*
X0136207Y0091242D01*
X0136239Y0091324D01*
X0136276Y0091404D01*
X0136316Y0091483D01*
X0136360Y0091560D01*
X0136407Y0091635D01*
X0136457Y0091707D01*
X0136511Y0091778D01*
X0136567Y0091845D01*
X0136627Y0091911D01*
X0136689Y0091973D01*
X0136755Y0092033D01*
X0136822Y0092089D01*
X0136893Y0092143D01*
X0136965Y0092193D01*
X0137040Y0092240D01*
X0137117Y0092284D01*
X0137196Y0092324D01*
X0137276Y0092361D01*
X0137358Y0092393D01*
X0137442Y0092423D01*
X0137526Y0092448D01*
X0137612Y0092470D01*
X0137698Y0092487D01*
X0137786Y0092501D01*
X0137874Y0092511D01*
X0137962Y0092517D01*
X0138050Y0092519D01*
X0138138Y0092517D01*
X0138226Y0092511D01*
X0138314Y0092501D01*
X0138402Y0092487D01*
X0138488Y0092470D01*
X0138574Y0092448D01*
X0138658Y0092423D01*
X0138742Y0092393D01*
X0138824Y0092361D01*
X0138904Y0092324D01*
X0138983Y0092284D01*
X0139060Y0092240D01*
X0139135Y0092193D01*
X0139207Y0092143D01*
X0139278Y0092089D01*
X0139345Y0092033D01*
X0139411Y0091973D01*
X0139473Y0091911D01*
X0139533Y0091845D01*
X0139589Y0091778D01*
X0139643Y0091707D01*
X0139693Y0091635D01*
X0139740Y0091560D01*
X0139784Y0091483D01*
X0139824Y0091404D01*
X0139861Y0091324D01*
X0139893Y0091242D01*
X0139923Y0091158D01*
X0139948Y0091074D01*
X0139970Y0090988D01*
X0139987Y0090902D01*
X0140001Y0090814D01*
X0140011Y0090726D01*
X0140017Y0090638D01*
X0140019Y0090550D01*
X0140017Y0090462D01*
X0140011Y0090374D01*
X0140001Y0090286D01*
X0139987Y0090198D01*
X0139970Y0090112D01*
X0139948Y0090026D01*
X0139923Y0089942D01*
X0139893Y0089858D01*
X0139861Y0089776D01*
X0139824Y0089696D01*
X0139784Y0089617D01*
X0139740Y0089540D01*
X0139693Y0089465D01*
X0139643Y0089393D01*
X0139589Y0089322D01*
X0139533Y0089255D01*
X0139473Y0089189D01*
X0139411Y0089127D01*
X0139345Y0089067D01*
X0139278Y0089011D01*
X0139207Y0088957D01*
X0139135Y0088907D01*
X0139060Y0088860D01*
X0138983Y0088816D01*
X0138904Y0088776D01*
X0138824Y0088739D01*
X0138742Y0088707D01*
X0138658Y0088677D01*
X0138574Y0088652D01*
X0138488Y0088630D01*
X0138402Y0088613D01*
X0138314Y0088599D01*
X0138226Y0088589D01*
X0138138Y0088583D01*
X0138050Y0088581D01*
X0137962Y0088583D01*
X0137874Y0088589D01*
X0137786Y0088599D01*
X0137698Y0088613D01*
X0137612Y0088630D01*
X0137526Y0088652D01*
X0137442Y0088677D01*
X0137358Y0088707D01*
X0137276Y0088739D01*
X0137196Y0088776D01*
X0137117Y0088816D01*
X0137040Y0088860D01*
X0136965Y0088907D01*
X0136893Y0088957D01*
X0136822Y0089011D01*
X0136755Y0089067D01*
X0136689Y0089127D01*
X0136627Y0089189D01*
X0136567Y0089255D01*
X0136511Y0089322D01*
X0136457Y0089393D01*
X0136407Y0089465D01*
X0136360Y0089540D01*
X0136316Y0089617D01*
X0136276Y0089696D01*
X0136239Y0089776D01*
X0136207Y0089858D01*
X0136177Y0089942D01*
X0136152Y0090026D01*
X0136130Y0090112D01*
X0136113Y0090198D01*
X0136099Y0090286D01*
X0136089Y0090374D01*
X0136083Y0090462D01*
X0136081Y0090550D01*
X0156081Y0278050D02*
X0156083Y0278138D01*
X0156089Y0278226D01*
X0156099Y0278314D01*
X0156113Y0278402D01*
X0156130Y0278488D01*
X0156152Y0278574D01*
X0156177Y0278658D01*
X0156207Y0278742D01*
X0156239Y0278824D01*
X0156276Y0278904D01*
X0156316Y0278983D01*
X0156360Y0279060D01*
X0156407Y0279135D01*
X0156457Y0279207D01*
X0156511Y0279278D01*
X0156567Y0279345D01*
X0156627Y0279411D01*
X0156689Y0279473D01*
X0156755Y0279533D01*
X0156822Y0279589D01*
X0156893Y0279643D01*
X0156965Y0279693D01*
X0157040Y0279740D01*
X0157117Y0279784D01*
X0157196Y0279824D01*
X0157276Y0279861D01*
X0157358Y0279893D01*
X0157442Y0279923D01*
X0157526Y0279948D01*
X0157612Y0279970D01*
X0157698Y0279987D01*
X0157786Y0280001D01*
X0157874Y0280011D01*
X0157962Y0280017D01*
X0158050Y0280019D01*
X0158138Y0280017D01*
X0158226Y0280011D01*
X0158314Y0280001D01*
X0158402Y0279987D01*
X0158488Y0279970D01*
X0158574Y0279948D01*
X0158658Y0279923D01*
X0158742Y0279893D01*
X0158824Y0279861D01*
X0158904Y0279824D01*
X0158983Y0279784D01*
X0159060Y0279740D01*
X0159135Y0279693D01*
X0159207Y0279643D01*
X0159278Y0279589D01*
X0159345Y0279533D01*
X0159411Y0279473D01*
X0159473Y0279411D01*
X0159533Y0279345D01*
X0159589Y0279278D01*
X0159643Y0279207D01*
X0159693Y0279135D01*
X0159740Y0279060D01*
X0159784Y0278983D01*
X0159824Y0278904D01*
X0159861Y0278824D01*
X0159893Y0278742D01*
X0159923Y0278658D01*
X0159948Y0278574D01*
X0159970Y0278488D01*
X0159987Y0278402D01*
X0160001Y0278314D01*
X0160011Y0278226D01*
X0160017Y0278138D01*
X0160019Y0278050D01*
X0160017Y0277962D01*
X0160011Y0277874D01*
X0160001Y0277786D01*
X0159987Y0277698D01*
X0159970Y0277612D01*
X0159948Y0277526D01*
X0159923Y0277442D01*
X0159893Y0277358D01*
X0159861Y0277276D01*
X0159824Y0277196D01*
X0159784Y0277117D01*
X0159740Y0277040D01*
X0159693Y0276965D01*
X0159643Y0276893D01*
X0159589Y0276822D01*
X0159533Y0276755D01*
X0159473Y0276689D01*
X0159411Y0276627D01*
X0159345Y0276567D01*
X0159278Y0276511D01*
X0159207Y0276457D01*
X0159135Y0276407D01*
X0159060Y0276360D01*
X0158983Y0276316D01*
X0158904Y0276276D01*
X0158824Y0276239D01*
X0158742Y0276207D01*
X0158658Y0276177D01*
X0158574Y0276152D01*
X0158488Y0276130D01*
X0158402Y0276113D01*
X0158314Y0276099D01*
X0158226Y0276089D01*
X0158138Y0276083D01*
X0158050Y0276081D01*
X0157962Y0276083D01*
X0157874Y0276089D01*
X0157786Y0276099D01*
X0157698Y0276113D01*
X0157612Y0276130D01*
X0157526Y0276152D01*
X0157442Y0276177D01*
X0157358Y0276207D01*
X0157276Y0276239D01*
X0157196Y0276276D01*
X0157117Y0276316D01*
X0157040Y0276360D01*
X0156965Y0276407D01*
X0156893Y0276457D01*
X0156822Y0276511D01*
X0156755Y0276567D01*
X0156689Y0276627D01*
X0156627Y0276689D01*
X0156567Y0276755D01*
X0156511Y0276822D01*
X0156457Y0276893D01*
X0156407Y0276965D01*
X0156360Y0277040D01*
X0156316Y0277117D01*
X0156276Y0277196D01*
X0156239Y0277276D01*
X0156207Y0277358D01*
X0156177Y0277442D01*
X0156152Y0277526D01*
X0156130Y0277612D01*
X0156113Y0277698D01*
X0156099Y0277786D01*
X0156089Y0277874D01*
X0156083Y0277962D01*
X0156081Y0278050D01*
X0014831Y0278050D02*
X0014833Y0278138D01*
X0014839Y0278226D01*
X0014849Y0278314D01*
X0014863Y0278402D01*
X0014880Y0278488D01*
X0014902Y0278574D01*
X0014927Y0278658D01*
X0014957Y0278742D01*
X0014989Y0278824D01*
X0015026Y0278904D01*
X0015066Y0278983D01*
X0015110Y0279060D01*
X0015157Y0279135D01*
X0015207Y0279207D01*
X0015261Y0279278D01*
X0015317Y0279345D01*
X0015377Y0279411D01*
X0015439Y0279473D01*
X0015505Y0279533D01*
X0015572Y0279589D01*
X0015643Y0279643D01*
X0015715Y0279693D01*
X0015790Y0279740D01*
X0015867Y0279784D01*
X0015946Y0279824D01*
X0016026Y0279861D01*
X0016108Y0279893D01*
X0016192Y0279923D01*
X0016276Y0279948D01*
X0016362Y0279970D01*
X0016448Y0279987D01*
X0016536Y0280001D01*
X0016624Y0280011D01*
X0016712Y0280017D01*
X0016800Y0280019D01*
X0016888Y0280017D01*
X0016976Y0280011D01*
X0017064Y0280001D01*
X0017152Y0279987D01*
X0017238Y0279970D01*
X0017324Y0279948D01*
X0017408Y0279923D01*
X0017492Y0279893D01*
X0017574Y0279861D01*
X0017654Y0279824D01*
X0017733Y0279784D01*
X0017810Y0279740D01*
X0017885Y0279693D01*
X0017957Y0279643D01*
X0018028Y0279589D01*
X0018095Y0279533D01*
X0018161Y0279473D01*
X0018223Y0279411D01*
X0018283Y0279345D01*
X0018339Y0279278D01*
X0018393Y0279207D01*
X0018443Y0279135D01*
X0018490Y0279060D01*
X0018534Y0278983D01*
X0018574Y0278904D01*
X0018611Y0278824D01*
X0018643Y0278742D01*
X0018673Y0278658D01*
X0018698Y0278574D01*
X0018720Y0278488D01*
X0018737Y0278402D01*
X0018751Y0278314D01*
X0018761Y0278226D01*
X0018767Y0278138D01*
X0018769Y0278050D01*
X0018767Y0277962D01*
X0018761Y0277874D01*
X0018751Y0277786D01*
X0018737Y0277698D01*
X0018720Y0277612D01*
X0018698Y0277526D01*
X0018673Y0277442D01*
X0018643Y0277358D01*
X0018611Y0277276D01*
X0018574Y0277196D01*
X0018534Y0277117D01*
X0018490Y0277040D01*
X0018443Y0276965D01*
X0018393Y0276893D01*
X0018339Y0276822D01*
X0018283Y0276755D01*
X0018223Y0276689D01*
X0018161Y0276627D01*
X0018095Y0276567D01*
X0018028Y0276511D01*
X0017957Y0276457D01*
X0017885Y0276407D01*
X0017810Y0276360D01*
X0017733Y0276316D01*
X0017654Y0276276D01*
X0017574Y0276239D01*
X0017492Y0276207D01*
X0017408Y0276177D01*
X0017324Y0276152D01*
X0017238Y0276130D01*
X0017152Y0276113D01*
X0017064Y0276099D01*
X0016976Y0276089D01*
X0016888Y0276083D01*
X0016800Y0276081D01*
X0016712Y0276083D01*
X0016624Y0276089D01*
X0016536Y0276099D01*
X0016448Y0276113D01*
X0016362Y0276130D01*
X0016276Y0276152D01*
X0016192Y0276177D01*
X0016108Y0276207D01*
X0016026Y0276239D01*
X0015946Y0276276D01*
X0015867Y0276316D01*
X0015790Y0276360D01*
X0015715Y0276407D01*
X0015643Y0276457D01*
X0015572Y0276511D01*
X0015505Y0276567D01*
X0015439Y0276627D01*
X0015377Y0276689D01*
X0015317Y0276755D01*
X0015261Y0276822D01*
X0015207Y0276893D01*
X0015157Y0276965D01*
X0015110Y0277040D01*
X0015066Y0277117D01*
X0015026Y0277196D01*
X0014989Y0277276D01*
X0014957Y0277358D01*
X0014927Y0277442D01*
X0014902Y0277526D01*
X0014880Y0277612D01*
X0014863Y0277698D01*
X0014849Y0277786D01*
X0014839Y0277874D01*
X0014833Y0277962D01*
X0014831Y0278050D01*
D11*
X0030550Y0278050D03*
X0040550Y0278050D03*
X0040550Y0258050D03*
X0045550Y0243050D03*
X0030550Y0243050D03*
X0030550Y0258050D03*
X0030550Y0203050D03*
X0045550Y0203050D03*
X0093050Y0145550D03*
X0093050Y0135550D03*
X0080550Y0116800D03*
X0080550Y0106800D03*
X0083050Y0074300D03*
X0073050Y0074300D03*
X0061800Y0065550D03*
X0061800Y0055550D03*
X0050550Y0055550D03*
X0050550Y0065550D03*
X0039300Y0069300D03*
X0039300Y0056800D03*
X0029300Y0056800D03*
X0029300Y0069300D03*
X0073050Y0034300D03*
X0083050Y0034300D03*
X0105550Y0028050D03*
X0128050Y0029300D03*
X0150550Y0031800D03*
X0128050Y0069300D03*
X0105550Y0068050D03*
X0150550Y0071800D03*
D12*
X0139300Y0073050D03*
X0139300Y0053050D03*
X0116800Y0053050D03*
X0116800Y0073050D03*
X0094300Y0071800D03*
X0094300Y0051800D03*
X0060550Y0039300D03*
X0040550Y0039300D03*
D13*
X0039300Y0080849D03*
X0030202Y0080849D03*
X0048398Y0080849D03*
D14*
X0039300Y0105251D03*
D15*
X0046800Y0020550D03*
X0061800Y0020550D03*
X0078050Y0020550D03*
X0095550Y0020550D03*
X0119300Y0020550D03*
X0140550Y0020550D03*
X0029300Y0020550D03*
D16*
X0057243Y0192617D03*
X0057243Y0200491D03*
X0057243Y0208365D03*
X0057243Y0216239D03*
X0057243Y0224113D03*
X0057243Y0231987D03*
X0057243Y0239861D03*
X0057243Y0247735D03*
X0057243Y0255609D03*
X0057243Y0263483D03*
X0143857Y0263483D03*
X0143857Y0255609D03*
X0143857Y0247735D03*
X0143857Y0239861D03*
X0143857Y0231987D03*
X0143857Y0224113D03*
X0143857Y0216239D03*
X0143857Y0208365D03*
X0143857Y0200491D03*
X0143857Y0192617D03*
D17*
X0031800Y0184300D03*
X0031800Y0166800D03*
D18*
X0048050Y0135550D03*
D19*
X0080850Y0135550D03*
X0080850Y0145550D03*
X0080850Y0125550D03*
D20*
X0083850Y0121650D02*
X0083850Y0119723D01*
X0084950Y0118623D01*
X0084950Y0114977D01*
X0082373Y0112400D01*
X0078727Y0112400D01*
X0077685Y0113442D01*
X0070593Y0106351D01*
X0069749Y0105507D01*
X0068647Y0105050D01*
X0056793Y0105050D01*
X0053550Y0101807D01*
X0053550Y0083150D01*
X0057317Y0083150D01*
X0058273Y0082754D01*
X0059004Y0082023D01*
X0064004Y0077023D01*
X0064400Y0076067D01*
X0064400Y0069173D01*
X0066200Y0067373D01*
X0066200Y0063727D01*
X0063623Y0061150D01*
X0059977Y0061150D01*
X0057400Y0063727D01*
X0057400Y0067373D01*
X0059200Y0069173D01*
X0059200Y0074473D01*
X0055723Y0077950D01*
X0052598Y0077950D01*
X0052598Y0075704D01*
X0051544Y0074650D01*
X0051398Y0074650D01*
X0051398Y0069950D01*
X0052373Y0069950D01*
X0054950Y0067373D01*
X0054950Y0063727D01*
X0052373Y0061150D01*
X0048727Y0061150D01*
X0046150Y0063727D01*
X0046150Y0065707D01*
X0045855Y0066002D01*
X0045398Y0067105D01*
X0045398Y0074650D01*
X0045253Y0074650D01*
X0044199Y0075704D01*
X0044199Y0085994D01*
X0045253Y0087049D01*
X0047550Y0087049D01*
X0047550Y0099538D01*
X0047132Y0099120D01*
X0031468Y0099120D01*
X0030413Y0100174D01*
X0030413Y0110327D01*
X0031468Y0111381D01*
X0047132Y0111381D01*
X0048187Y0110327D01*
X0048187Y0104929D01*
X0048851Y0105593D01*
X0053851Y0110593D01*
X0054953Y0111050D01*
X0066807Y0111050D01*
X0068248Y0112490D01*
X0026812Y0112490D01*
X0025758Y0113545D01*
X0025758Y0157555D01*
X0026812Y0158610D01*
X0069288Y0158610D01*
X0070050Y0157848D01*
X0070050Y0169307D01*
X0058057Y0181300D01*
X0039850Y0181300D01*
X0039850Y0180966D01*
X0035134Y0176250D01*
X0028466Y0176250D01*
X0023750Y0180966D01*
X0023750Y0187634D01*
X0028466Y0192350D01*
X0035134Y0192350D01*
X0039850Y0187634D01*
X0039850Y0187300D01*
X0059897Y0187300D01*
X0060999Y0186843D01*
X0074749Y0173093D01*
X0075593Y0172249D01*
X0076050Y0171147D01*
X0076050Y0149450D01*
X0077550Y0149450D01*
X0077550Y0253057D01*
X0070124Y0260483D01*
X0060430Y0260483D01*
X0059721Y0259774D01*
X0059170Y0259546D01*
X0059721Y0259318D01*
X0060952Y0258087D01*
X0061618Y0256479D01*
X0061618Y0254739D01*
X0060952Y0253131D01*
X0059721Y0251900D01*
X0059170Y0251672D01*
X0059721Y0251444D01*
X0060952Y0250213D01*
X0061618Y0248605D01*
X0061618Y0246865D01*
X0060952Y0245257D01*
X0059721Y0244026D01*
X0059170Y0243798D01*
X0059721Y0243570D01*
X0060952Y0242339D01*
X0061618Y0240731D01*
X0061618Y0238991D01*
X0060952Y0237383D01*
X0059721Y0236152D01*
X0059170Y0235924D01*
X0059721Y0235696D01*
X0060952Y0234465D01*
X0061618Y0232857D01*
X0061618Y0231117D01*
X0060952Y0229509D01*
X0059721Y0228278D01*
X0059170Y0228050D01*
X0059721Y0227822D01*
X0060952Y0226591D01*
X0061618Y0224983D01*
X0061618Y0223243D01*
X0060952Y0221635D01*
X0059721Y0220404D01*
X0059170Y0220176D01*
X0059721Y0219948D01*
X0060952Y0218717D01*
X0061618Y0217109D01*
X0061618Y0215369D01*
X0060952Y0213761D01*
X0059721Y0212530D01*
X0059170Y0212302D01*
X0059721Y0212074D01*
X0060952Y0210843D01*
X0061618Y0209235D01*
X0061618Y0207495D01*
X0060952Y0205887D01*
X0059721Y0204656D01*
X0059170Y0204428D01*
X0059721Y0204200D01*
X0060952Y0202969D01*
X0061618Y0201361D01*
X0061618Y0199621D01*
X0060952Y0198013D01*
X0059721Y0196782D01*
X0059160Y0196550D01*
X0059536Y0196359D01*
X0060093Y0195954D01*
X0060580Y0195467D01*
X0060985Y0194910D01*
X0061297Y0194296D01*
X0061510Y0193641D01*
X0061618Y0192961D01*
X0061618Y0192617D01*
X0057243Y0192617D01*
X0057243Y0192617D01*
X0061618Y0192617D01*
X0061618Y0192273D01*
X0061510Y0191592D01*
X0061297Y0190938D01*
X0060985Y0190324D01*
X0060580Y0189767D01*
X0060093Y0189280D01*
X0059536Y0188875D01*
X0058922Y0188563D01*
X0058267Y0188350D01*
X0057587Y0188242D01*
X0057243Y0188242D01*
X0057243Y0192617D01*
X0057243Y0192617D01*
X0057243Y0192617D01*
X0052868Y0192617D01*
X0052868Y0192961D01*
X0052976Y0193641D01*
X0053189Y0194296D01*
X0053501Y0194910D01*
X0053906Y0195467D01*
X0054393Y0195954D01*
X0054950Y0196359D01*
X0055326Y0196550D01*
X0054765Y0196782D01*
X0053534Y0198013D01*
X0052868Y0199621D01*
X0052868Y0201361D01*
X0053534Y0202969D01*
X0054765Y0204200D01*
X0055316Y0204428D01*
X0054765Y0204656D01*
X0053534Y0205887D01*
X0052868Y0207495D01*
X0052868Y0209235D01*
X0053534Y0210843D01*
X0054765Y0212074D01*
X0055316Y0212302D01*
X0054765Y0212530D01*
X0053550Y0213745D01*
X0053550Y0212453D01*
X0053093Y0211351D01*
X0052249Y0210507D01*
X0052249Y0210507D01*
X0050593Y0208851D01*
X0050593Y0208851D01*
X0049749Y0208007D01*
X0048647Y0207550D01*
X0044293Y0207550D01*
X0044193Y0207450D01*
X0045550Y0207450D01*
X0045550Y0203050D01*
X0045550Y0203050D01*
X0049950Y0203050D01*
X0049950Y0204873D01*
X0047373Y0207450D01*
X0045550Y0207450D01*
X0045550Y0203050D01*
X0045550Y0203050D01*
X0049950Y0203050D01*
X0049950Y0201227D01*
X0047373Y0198650D01*
X0045550Y0198650D01*
X0045550Y0203050D01*
X0045550Y0203050D01*
X0045550Y0203050D01*
X0041150Y0203050D01*
X0041150Y0204407D01*
X0037249Y0200507D01*
X0036147Y0200050D01*
X0033773Y0200050D01*
X0032373Y0198650D01*
X0028727Y0198650D01*
X0027327Y0200050D01*
X0026793Y0200050D01*
X0022300Y0195557D01*
X0022300Y0029293D01*
X0025363Y0026230D01*
X0026483Y0027350D01*
X0032117Y0027350D01*
X0036100Y0023367D01*
X0036100Y0017733D01*
X0032117Y0013750D01*
X0026483Y0013750D01*
X0022500Y0017733D01*
X0022500Y0020607D01*
X0017601Y0025507D01*
X0016757Y0026351D01*
X0016300Y0027453D01*
X0016300Y0197397D01*
X0016757Y0198499D01*
X0023851Y0205593D01*
X0024953Y0206050D01*
X0027327Y0206050D01*
X0028727Y0207450D01*
X0032373Y0207450D01*
X0033773Y0206050D01*
X0034307Y0206050D01*
X0040507Y0212249D01*
X0041351Y0213093D01*
X0042453Y0213550D01*
X0046807Y0213550D01*
X0047550Y0214293D01*
X0047550Y0238827D01*
X0047373Y0238650D01*
X0043727Y0238650D01*
X0041727Y0240650D01*
X0040073Y0240650D01*
X0039191Y0241015D01*
X0038515Y0241691D01*
X0038515Y0241691D01*
X0033515Y0246691D01*
X0033150Y0247573D01*
X0033150Y0254427D01*
X0032950Y0254227D01*
X0032950Y0246873D01*
X0034950Y0244873D01*
X0034950Y0241227D01*
X0032373Y0238650D01*
X0028727Y0238650D01*
X0026150Y0241227D01*
X0026150Y0244873D01*
X0028150Y0246873D01*
X0028150Y0254227D01*
X0026150Y0256227D01*
X0026150Y0259873D01*
X0028727Y0262450D01*
X0032373Y0262450D01*
X0033150Y0261673D01*
X0033150Y0272056D01*
X0031556Y0273650D01*
X0028727Y0273650D01*
X0026150Y0276227D01*
X0026150Y0279873D01*
X0028727Y0282450D01*
X0032373Y0282450D01*
X0034950Y0279873D01*
X0034950Y0277044D01*
X0036909Y0275085D01*
X0036909Y0275085D01*
X0037585Y0274409D01*
X0037950Y0273527D01*
X0037950Y0261673D01*
X0038727Y0262450D01*
X0041556Y0262450D01*
X0052941Y0273835D01*
X0053823Y0274200D01*
X0142256Y0274200D01*
X0134556Y0281900D01*
X0044044Y0281900D01*
X0043483Y0281339D01*
X0044950Y0279873D01*
X0044950Y0276227D01*
X0042373Y0273650D01*
X0038727Y0273650D01*
X0036150Y0276227D01*
X0036150Y0279873D01*
X0038150Y0281873D01*
X0038150Y0282277D01*
X0038250Y0282519D01*
X0038250Y0282753D01*
X0038415Y0282918D01*
X0038515Y0283159D01*
X0041067Y0285711D01*
X0006600Y0285711D01*
X0006600Y0007850D01*
X0168201Y0007850D01*
X0168201Y0285711D01*
X0137533Y0285711D01*
X0137585Y0285659D01*
X0153835Y0269409D01*
X0154200Y0268527D01*
X0154200Y0215073D01*
X0153835Y0214191D01*
X0153159Y0213515D01*
X0148232Y0208588D01*
X0148232Y0207495D01*
X0147566Y0205887D01*
X0146335Y0204656D01*
X0145784Y0204428D01*
X0146335Y0204200D01*
X0147566Y0202969D01*
X0148232Y0201361D01*
X0148232Y0199621D01*
X0147566Y0198013D01*
X0146335Y0196782D01*
X0145784Y0196554D01*
X0146335Y0196326D01*
X0147566Y0195095D01*
X0148232Y0193487D01*
X0148232Y0191747D01*
X0147566Y0190139D01*
X0146335Y0188908D01*
X0144727Y0188242D01*
X0142987Y0188242D01*
X0141379Y0188908D01*
X0140148Y0190139D01*
X0139482Y0191747D01*
X0139482Y0193487D01*
X0140148Y0195095D01*
X0141379Y0196326D01*
X0141930Y0196554D01*
X0141379Y0196782D01*
X0140148Y0198013D01*
X0139482Y0199621D01*
X0139482Y0201361D01*
X0140148Y0202969D01*
X0141379Y0204200D01*
X0141930Y0204428D01*
X0141379Y0204656D01*
X0140148Y0205887D01*
X0139482Y0207495D01*
X0139482Y0209235D01*
X0139909Y0210265D01*
X0139200Y0209556D01*
X0139200Y0166544D01*
X0161909Y0143835D01*
X0162585Y0143159D01*
X0162950Y0142277D01*
X0162950Y0016323D01*
X0162585Y0015441D01*
X0156335Y0009191D01*
X0155659Y0008515D01*
X0154777Y0008150D01*
X0048823Y0008150D01*
X0047941Y0008515D01*
X0045441Y0011015D01*
X0044765Y0011691D01*
X0044400Y0012573D01*
X0044400Y0013750D01*
X0043983Y0013750D01*
X0040000Y0017733D01*
X0040000Y0023367D01*
X0042283Y0025650D01*
X0036323Y0025650D01*
X0035441Y0026015D01*
X0034765Y0026691D01*
X0029765Y0031691D01*
X0029400Y0032573D01*
X0029400Y0046027D01*
X0029765Y0046909D01*
X0030441Y0047585D01*
X0036367Y0053511D01*
X0034900Y0054977D01*
X0034900Y0058623D01*
X0036900Y0060623D01*
X0036900Y0065477D01*
X0034900Y0067477D01*
X0034900Y0071123D01*
X0036900Y0073123D01*
X0036900Y0074650D01*
X0036155Y0074650D01*
X0035100Y0075704D01*
X0035100Y0085994D01*
X0036155Y0087049D01*
X0042445Y0087049D01*
X0043500Y0085994D01*
X0043500Y0075704D01*
X0042445Y0074650D01*
X0041700Y0074650D01*
X0041700Y0073123D01*
X0043700Y0071123D01*
X0043700Y0067477D01*
X0041700Y0065477D01*
X0041700Y0060623D01*
X0043700Y0058623D01*
X0043700Y0054977D01*
X0041700Y0052977D01*
X0041700Y0052573D01*
X0041335Y0051691D01*
X0034200Y0044556D01*
X0034200Y0034044D01*
X0037794Y0030450D01*
X0044777Y0030450D01*
X0045659Y0030085D01*
X0048159Y0027585D01*
X0048394Y0027350D01*
X0049617Y0027350D01*
X0053600Y0023367D01*
X0053600Y0017733D01*
X0049617Y0013750D01*
X0049494Y0013750D01*
X0050294Y0012950D01*
X0153306Y0012950D01*
X0158150Y0017794D01*
X0158150Y0140806D01*
X0134765Y0164191D01*
X0134400Y0165073D01*
X0134400Y0211027D01*
X0134765Y0211909D01*
X0135441Y0212585D01*
X0139482Y0216626D01*
X0139482Y0217109D01*
X0140148Y0218717D01*
X0141379Y0219948D01*
X0141930Y0220176D01*
X0141379Y0220404D01*
X0140148Y0221635D01*
X0139482Y0223243D01*
X0139482Y0224983D01*
X0140148Y0226591D01*
X0141379Y0227822D01*
X0141930Y0228050D01*
X0141379Y0228278D01*
X0140148Y0229509D01*
X0139482Y0231117D01*
X0139482Y0232857D01*
X0140148Y0234465D01*
X0141379Y0235696D01*
X0141930Y0235924D01*
X0141379Y0236152D01*
X0140270Y0237261D01*
X0134688Y0237261D01*
X0124400Y0226973D01*
X0124400Y0084127D01*
X0125377Y0083150D01*
X0136067Y0083150D01*
X0137023Y0082754D01*
X0137754Y0082023D01*
X0141504Y0078273D01*
X0141806Y0077545D01*
X0144250Y0075100D01*
X0144250Y0071000D01*
X0141900Y0068650D01*
X0141900Y0062877D01*
X0152023Y0052754D01*
X0152754Y0052023D01*
X0153150Y0051067D01*
X0153150Y0035423D01*
X0154950Y0033623D01*
X0154950Y0029977D01*
X0153150Y0028177D01*
X0153150Y0025033D01*
X0152754Y0024077D01*
X0147754Y0019077D01*
X0147350Y0018673D01*
X0147350Y0017733D01*
X0143367Y0013750D01*
X0137733Y0013750D01*
X0133750Y0017733D01*
X0133750Y0023367D01*
X0137733Y0027350D01*
X0143367Y0027350D01*
X0146020Y0024697D01*
X0147950Y0026627D01*
X0147950Y0028177D01*
X0146150Y0029977D01*
X0146150Y0033623D01*
X0147950Y0035423D01*
X0147950Y0049473D01*
X0144250Y0053173D01*
X0144250Y0053050D01*
X0139300Y0053050D01*
X0139300Y0053050D01*
X0139300Y0053050D01*
X0139300Y0058000D01*
X0139423Y0058000D01*
X0137096Y0060327D01*
X0136700Y0061283D01*
X0136700Y0068650D01*
X0134350Y0071000D01*
X0134350Y0075100D01*
X0135836Y0076587D01*
X0134473Y0077950D01*
X0123783Y0077950D01*
X0122827Y0078346D01*
X0120327Y0080846D01*
X0119596Y0081577D01*
X0119400Y0082050D01*
X0119400Y0077450D01*
X0121750Y0075100D01*
X0121750Y0071000D01*
X0119400Y0068650D01*
X0119400Y0062877D01*
X0129523Y0052754D01*
X0130254Y0052023D01*
X0130650Y0051067D01*
X0130650Y0032923D01*
X0132450Y0031123D01*
X0132450Y0027477D01*
X0130650Y0025677D01*
X0130650Y0025033D01*
X0130254Y0024077D01*
X0126100Y0019923D01*
X0126100Y0017733D01*
X0122117Y0013750D01*
X0116483Y0013750D01*
X0112500Y0017733D01*
X0112500Y0023367D01*
X0116483Y0027350D01*
X0122117Y0027350D01*
X0124145Y0025322D01*
X0124975Y0026152D01*
X0123650Y0027477D01*
X0123650Y0031123D01*
X0125450Y0032923D01*
X0125450Y0049473D01*
X0121750Y0053173D01*
X0121750Y0053050D01*
X0116800Y0053050D01*
X0116800Y0053050D01*
X0116800Y0053050D01*
X0116800Y0058000D01*
X0116923Y0058000D01*
X0114596Y0060327D01*
X0114200Y0061283D01*
X0114200Y0068650D01*
X0111850Y0071000D01*
X0111850Y0075100D01*
X0114200Y0077450D01*
X0114200Y0236067D01*
X0114596Y0237023D01*
X0115327Y0237754D01*
X0127512Y0249939D01*
X0128468Y0250335D01*
X0140270Y0250335D01*
X0141379Y0251444D01*
X0141930Y0251672D01*
X0141379Y0251900D01*
X0140270Y0253009D01*
X0120436Y0253009D01*
X0108150Y0240723D01*
X0108150Y0098783D01*
X0107754Y0097827D01*
X0096900Y0086973D01*
X0096900Y0076200D01*
X0099250Y0073850D01*
X0099250Y0069750D01*
X0096900Y0067400D01*
X0096900Y0060377D01*
X0107023Y0050254D01*
X0107754Y0049523D01*
X0108150Y0048567D01*
X0108150Y0031673D01*
X0109950Y0029873D01*
X0109950Y0026227D01*
X0108150Y0024427D01*
X0108150Y0022533D01*
X0107754Y0021577D01*
X0105254Y0019077D01*
X0104523Y0018346D01*
X0103567Y0017950D01*
X0102350Y0017950D01*
X0102350Y0017733D01*
X0098367Y0013750D01*
X0092733Y0013750D01*
X0088750Y0017733D01*
X0088750Y0023367D01*
X0092733Y0027350D01*
X0098367Y0027350D01*
X0102270Y0023447D01*
X0102950Y0024127D01*
X0102950Y0024427D01*
X0101150Y0026227D01*
X0101150Y0029873D01*
X0102950Y0031673D01*
X0102950Y0046973D01*
X0099250Y0050673D01*
X0099250Y0049750D01*
X0096350Y0046850D01*
X0094300Y0046850D01*
X0094300Y0051800D01*
X0094300Y0051800D01*
X0094300Y0051800D01*
X0089350Y0051800D01*
X0089350Y0053850D01*
X0092250Y0056750D01*
X0093173Y0056750D01*
X0092096Y0057827D01*
X0091700Y0058783D01*
X0091700Y0067400D01*
X0089350Y0069750D01*
X0089350Y0073850D01*
X0091700Y0076200D01*
X0091700Y0088567D01*
X0092096Y0089523D01*
X0092827Y0090254D01*
X0102950Y0100377D01*
X0102950Y0104550D01*
X0102754Y0104077D01*
X0085650Y0086973D01*
X0085650Y0077923D01*
X0087450Y0076123D01*
X0087450Y0072477D01*
X0085650Y0070677D01*
X0085650Y0048783D01*
X0085254Y0047827D01*
X0075650Y0038223D01*
X0075650Y0037923D01*
X0077450Y0036123D01*
X0077450Y0032477D01*
X0074873Y0029900D01*
X0071227Y0029900D01*
X0068650Y0032477D01*
X0068650Y0036123D01*
X0069227Y0036700D01*
X0064950Y0036700D01*
X0062600Y0034350D01*
X0058500Y0034350D01*
X0055600Y0037250D01*
X0055600Y0041350D01*
X0058500Y0044250D01*
X0062600Y0044250D01*
X0064950Y0041900D01*
X0071973Y0041900D01*
X0080450Y0050377D01*
X0080450Y0070677D01*
X0078650Y0072477D01*
X0078650Y0076123D01*
X0080450Y0077923D01*
X0080450Y0088567D01*
X0080846Y0089523D01*
X0081577Y0090254D01*
X0097950Y0106627D01*
X0097950Y0243567D01*
X0098346Y0244523D01*
X0099077Y0245254D01*
X0119510Y0265687D01*
X0120466Y0266083D01*
X0140270Y0266083D01*
X0141379Y0267192D01*
X0142987Y0267858D01*
X0144727Y0267858D01*
X0144933Y0267772D01*
X0143306Y0269400D01*
X0055294Y0269400D01*
X0044950Y0259056D01*
X0044950Y0256227D01*
X0042373Y0253650D01*
X0038727Y0253650D01*
X0037950Y0254427D01*
X0037950Y0249044D01*
X0041544Y0245450D01*
X0041727Y0245450D01*
X0043727Y0247450D01*
X0047373Y0247450D01*
X0047550Y0247273D01*
X0047550Y0257387D01*
X0048007Y0258490D01*
X0052868Y0263351D01*
X0052868Y0264353D01*
X0053534Y0265961D01*
X0054765Y0267192D01*
X0056373Y0267858D01*
X0058113Y0267858D01*
X0059721Y0267192D01*
X0060430Y0266483D01*
X0071964Y0266483D01*
X0073066Y0266026D01*
X0082249Y0256843D01*
X0083093Y0255999D01*
X0083550Y0254897D01*
X0083550Y0149450D01*
X0085846Y0149450D01*
X0086746Y0148550D01*
X0089827Y0148550D01*
X0091227Y0149950D01*
X0094873Y0149950D01*
X0097450Y0147373D01*
X0097450Y0143727D01*
X0094873Y0141150D01*
X0091227Y0141150D01*
X0089827Y0142550D01*
X0086746Y0142550D01*
X0085846Y0141650D01*
X0076050Y0141650D01*
X0076050Y0139366D01*
X0076363Y0139450D01*
X0080600Y0139450D01*
X0080600Y0135800D01*
X0081100Y0135800D01*
X0081100Y0139450D01*
X0085337Y0139450D01*
X0085795Y0139327D01*
X0086205Y0139090D01*
X0086540Y0138755D01*
X0086777Y0138345D01*
X0086900Y0137887D01*
X0086900Y0135800D01*
X0081100Y0135800D01*
X0081100Y0135300D01*
X0086900Y0135300D01*
X0086900Y0133213D01*
X0086777Y0132755D01*
X0086540Y0132345D01*
X0086205Y0132010D01*
X0085795Y0131773D01*
X0085337Y0131650D01*
X0081100Y0131650D01*
X0081100Y0135300D01*
X0080600Y0135300D01*
X0080600Y0131650D01*
X0076363Y0131650D01*
X0076050Y0131734D01*
X0076050Y0129450D01*
X0085846Y0129450D01*
X0086900Y0128396D01*
X0086900Y0122704D01*
X0085846Y0121650D01*
X0083850Y0121650D01*
X0083850Y0120113D02*
X0097950Y0120113D01*
X0097950Y0118515D02*
X0084950Y0118515D01*
X0084950Y0116916D02*
X0097950Y0116916D01*
X0097950Y0115318D02*
X0084950Y0115318D01*
X0083692Y0113719D02*
X0097950Y0113719D01*
X0097950Y0112120D02*
X0076363Y0112120D01*
X0074765Y0110522D02*
X0078049Y0110522D01*
X0078727Y0111200D02*
X0076150Y0108623D01*
X0076150Y0106800D01*
X0080550Y0106800D01*
X0080550Y0106800D01*
X0080550Y0111200D01*
X0082373Y0111200D01*
X0084950Y0108623D01*
X0084950Y0106800D01*
X0080550Y0106800D01*
X0080550Y0106800D01*
X0080550Y0106800D01*
X0080550Y0111200D01*
X0078727Y0111200D01*
X0080550Y0110522D02*
X0080550Y0110522D01*
X0080550Y0108923D02*
X0080550Y0108923D01*
X0080550Y0107325D02*
X0080550Y0107325D01*
X0080550Y0106800D02*
X0076150Y0106800D01*
X0076150Y0104977D01*
X0078727Y0102400D01*
X0080550Y0102400D01*
X0082373Y0102400D01*
X0084950Y0104977D01*
X0084950Y0106800D01*
X0080550Y0106800D01*
X0080550Y0102400D01*
X0080550Y0106800D01*
X0080550Y0106800D01*
X0080550Y0105726D02*
X0080550Y0105726D01*
X0080550Y0104128D02*
X0080550Y0104128D01*
X0080550Y0102529D02*
X0080550Y0102529D01*
X0082502Y0102529D02*
X0093852Y0102529D01*
X0092254Y0100931D02*
X0053550Y0100931D01*
X0053550Y0099332D02*
X0090655Y0099332D01*
X0089057Y0097734D02*
X0053550Y0097734D01*
X0053550Y0096135D02*
X0065313Y0096135D01*
X0065466Y0096288D02*
X0063562Y0094384D01*
X0062531Y0091896D01*
X0062531Y0089204D01*
X0063562Y0086716D01*
X0065466Y0084812D01*
X0067954Y0083781D01*
X0070646Y0083781D01*
X0073134Y0084812D01*
X0075038Y0086716D01*
X0076068Y0089204D01*
X0076068Y0091896D01*
X0075038Y0094384D01*
X0073134Y0096288D01*
X0070646Y0097318D01*
X0067954Y0097318D01*
X0065466Y0096288D01*
X0063715Y0094537D02*
X0053550Y0094537D01*
X0053550Y0092938D02*
X0062963Y0092938D01*
X0062531Y0091340D02*
X0053550Y0091340D01*
X0053550Y0089741D02*
X0062531Y0089741D01*
X0062971Y0088143D02*
X0053550Y0088143D01*
X0053550Y0086544D02*
X0063734Y0086544D01*
X0065332Y0084946D02*
X0053550Y0084946D01*
X0053550Y0083347D02*
X0080450Y0083347D01*
X0080450Y0081749D02*
X0059278Y0081749D01*
X0060877Y0080150D02*
X0080450Y0080150D01*
X0080450Y0078552D02*
X0075021Y0078552D01*
X0074873Y0078700D02*
X0073050Y0078700D01*
X0073050Y0074300D01*
X0073050Y0074300D01*
X0077450Y0074300D01*
X0077450Y0076123D01*
X0074873Y0078700D01*
X0073050Y0078700D02*
X0073050Y0074300D01*
X0073050Y0074300D01*
X0073050Y0074300D01*
X0068650Y0074300D01*
X0068650Y0076123D01*
X0071227Y0078700D01*
X0073050Y0078700D01*
X0073050Y0078552D02*
X0073050Y0078552D01*
X0073050Y0076953D02*
X0073050Y0076953D01*
X0073050Y0075355D02*
X0073050Y0075355D01*
X0073050Y0074300D02*
X0068650Y0074300D01*
X0068650Y0072477D01*
X0071227Y0069900D01*
X0073050Y0069900D01*
X0074873Y0069900D01*
X0077450Y0072477D01*
X0077450Y0074300D01*
X0073050Y0074300D01*
X0073050Y0069900D01*
X0073050Y0074300D01*
X0073050Y0074300D01*
X0073050Y0073756D02*
X0073050Y0073756D01*
X0073050Y0072158D02*
X0073050Y0072158D01*
X0073050Y0070559D02*
X0073050Y0070559D01*
X0075532Y0070559D02*
X0080450Y0070559D01*
X0080450Y0068961D02*
X0064612Y0068961D01*
X0064400Y0070559D02*
X0070568Y0070559D01*
X0068970Y0072158D02*
X0064400Y0072158D01*
X0064400Y0073756D02*
X0068650Y0073756D01*
X0068650Y0075355D02*
X0064400Y0075355D01*
X0064033Y0076953D02*
X0069481Y0076953D01*
X0071079Y0078552D02*
X0062475Y0078552D01*
X0061800Y0075550D02*
X0056800Y0080550D01*
X0051800Y0080550D01*
X0050550Y0081800D01*
X0052598Y0076953D02*
X0056720Y0076953D01*
X0058318Y0075355D02*
X0052249Y0075355D01*
X0051398Y0073756D02*
X0059200Y0073756D01*
X0059200Y0072158D02*
X0051398Y0072158D01*
X0051398Y0070559D02*
X0059200Y0070559D01*
X0058988Y0068961D02*
X0053362Y0068961D01*
X0054950Y0067362D02*
X0057400Y0067362D01*
X0057400Y0065764D02*
X0054950Y0065764D01*
X0054950Y0064165D02*
X0057400Y0064165D01*
X0058561Y0062567D02*
X0053789Y0062567D01*
X0052373Y0059950D02*
X0050550Y0059950D01*
X0050550Y0055550D01*
X0050550Y0055550D01*
X0054950Y0055550D01*
X0054950Y0057373D01*
X0052373Y0059950D01*
X0052953Y0059370D02*
X0059397Y0059370D01*
X0059977Y0059950D02*
X0057400Y0057373D01*
X0057400Y0055550D01*
X0061800Y0055550D01*
X0061800Y0055550D01*
X0061800Y0059950D01*
X0063623Y0059950D01*
X0066200Y0057373D01*
X0066200Y0055550D01*
X0061800Y0055550D01*
X0061800Y0055550D01*
X0061800Y0055550D01*
X0061800Y0059950D01*
X0059977Y0059950D01*
X0061800Y0059370D02*
X0061800Y0059370D01*
X0061800Y0057771D02*
X0061800Y0057771D01*
X0061800Y0056173D02*
X0061800Y0056173D01*
X0061800Y0055550D02*
X0057400Y0055550D01*
X0057400Y0053727D01*
X0059977Y0051150D01*
X0061800Y0051150D01*
X0063623Y0051150D01*
X0066200Y0053727D01*
X0066200Y0055550D01*
X0061800Y0055550D01*
X0061800Y0051150D01*
X0061800Y0055550D01*
X0061800Y0055550D01*
X0061800Y0054574D02*
X0061800Y0054574D01*
X0061800Y0052976D02*
X0061800Y0052976D01*
X0061800Y0051377D02*
X0061800Y0051377D01*
X0063850Y0051377D02*
X0080450Y0051377D01*
X0080450Y0052976D02*
X0065448Y0052976D01*
X0066200Y0054574D02*
X0080450Y0054574D01*
X0080450Y0056173D02*
X0066200Y0056173D01*
X0065801Y0057771D02*
X0080450Y0057771D01*
X0080450Y0059370D02*
X0064203Y0059370D01*
X0065039Y0062567D02*
X0080450Y0062567D01*
X0080450Y0064165D02*
X0066200Y0064165D01*
X0066200Y0065764D02*
X0080450Y0065764D01*
X0080450Y0067362D02*
X0066200Y0067362D01*
X0061800Y0065550D02*
X0061800Y0075550D01*
X0073268Y0084946D02*
X0080450Y0084946D01*
X0080450Y0086544D02*
X0074866Y0086544D01*
X0075629Y0088143D02*
X0080450Y0088143D01*
X0081064Y0089741D02*
X0076068Y0089741D01*
X0076068Y0091340D02*
X0082663Y0091340D01*
X0084261Y0092938D02*
X0075637Y0092938D01*
X0074885Y0094537D02*
X0085860Y0094537D01*
X0087458Y0096135D02*
X0073287Y0096135D01*
X0078598Y0102529D02*
X0054272Y0102529D01*
X0055871Y0104128D02*
X0077000Y0104128D01*
X0076150Y0105726D02*
X0069969Y0105726D01*
X0071568Y0107325D02*
X0076150Y0107325D01*
X0076451Y0108923D02*
X0073166Y0108923D01*
X0067878Y0112120D02*
X0022300Y0112120D01*
X0022300Y0110522D02*
X0030608Y0110522D01*
X0030413Y0108923D02*
X0022300Y0108923D01*
X0022300Y0107325D02*
X0030413Y0107325D01*
X0030413Y0105726D02*
X0022300Y0105726D01*
X0022300Y0104128D02*
X0030413Y0104128D01*
X0030413Y0102529D02*
X0022300Y0102529D01*
X0022300Y0100931D02*
X0030413Y0100931D01*
X0031255Y0099332D02*
X0022300Y0099332D01*
X0022300Y0097734D02*
X0047550Y0097734D01*
X0047550Y0099332D02*
X0047345Y0099332D01*
X0047550Y0096135D02*
X0022300Y0096135D01*
X0022300Y0094537D02*
X0047550Y0094537D01*
X0047550Y0092938D02*
X0022300Y0092938D01*
X0022300Y0091340D02*
X0047550Y0091340D01*
X0047550Y0089741D02*
X0022300Y0089741D01*
X0022300Y0088143D02*
X0047550Y0088143D01*
X0044749Y0086544D02*
X0042950Y0086544D01*
X0043500Y0084946D02*
X0044199Y0084946D01*
X0044199Y0083347D02*
X0043500Y0083347D01*
X0043500Y0081749D02*
X0044199Y0081749D01*
X0044199Y0080150D02*
X0043500Y0080150D01*
X0043500Y0078552D02*
X0044199Y0078552D01*
X0044199Y0076953D02*
X0043500Y0076953D01*
X0043150Y0075355D02*
X0044548Y0075355D01*
X0045398Y0073756D02*
X0041700Y0073756D01*
X0042665Y0072158D02*
X0045398Y0072158D01*
X0045398Y0070559D02*
X0043700Y0070559D01*
X0043700Y0068961D02*
X0045398Y0068961D01*
X0045398Y0067362D02*
X0043585Y0067362D01*
X0041986Y0065764D02*
X0046094Y0065764D01*
X0046150Y0064165D02*
X0041700Y0064165D01*
X0041700Y0062567D02*
X0047311Y0062567D01*
X0048727Y0059950D02*
X0046150Y0057373D01*
X0046150Y0055550D01*
X0050550Y0055550D01*
X0050550Y0055550D01*
X0050550Y0055550D01*
X0050550Y0059950D01*
X0048727Y0059950D01*
X0048147Y0059370D02*
X0042953Y0059370D01*
X0043700Y0057771D02*
X0046549Y0057771D01*
X0046150Y0056173D02*
X0043700Y0056173D01*
X0043297Y0054574D02*
X0046150Y0054574D01*
X0046150Y0053727D02*
X0048727Y0051150D01*
X0050550Y0051150D01*
X0052373Y0051150D01*
X0054950Y0053727D01*
X0054950Y0055550D01*
X0050550Y0055550D01*
X0050550Y0051150D01*
X0050550Y0055550D01*
X0050550Y0055550D01*
X0046150Y0055550D01*
X0046150Y0053727D01*
X0046902Y0052976D02*
X0041700Y0052976D01*
X0041021Y0051377D02*
X0048500Y0051377D01*
X0050550Y0051377D02*
X0050550Y0051377D01*
X0050550Y0052976D02*
X0050550Y0052976D01*
X0050550Y0054574D02*
X0050550Y0054574D01*
X0050550Y0056173D02*
X0050550Y0056173D01*
X0050550Y0057771D02*
X0050550Y0057771D01*
X0050550Y0059370D02*
X0050550Y0059370D01*
X0054551Y0057771D02*
X0057799Y0057771D01*
X0057400Y0056173D02*
X0054950Y0056173D01*
X0054950Y0054574D02*
X0057400Y0054574D01*
X0058152Y0052976D02*
X0054198Y0052976D01*
X0052600Y0051377D02*
X0059750Y0051377D01*
X0057634Y0043384D02*
X0043466Y0043384D01*
X0042600Y0044250D02*
X0040550Y0044250D01*
X0040550Y0039300D01*
X0045500Y0039300D01*
X0045500Y0041350D01*
X0042600Y0044250D01*
X0040550Y0044250D02*
X0038500Y0044250D01*
X0035600Y0041350D01*
X0035600Y0039300D01*
X0040550Y0039300D01*
X0040550Y0039300D01*
X0040550Y0039300D01*
X0045500Y0039300D01*
X0045500Y0037250D01*
X0042600Y0034350D01*
X0040550Y0034350D01*
X0040550Y0039300D01*
X0040550Y0039300D01*
X0040550Y0039300D01*
X0040550Y0044250D01*
X0040550Y0043384D02*
X0040550Y0043384D01*
X0040550Y0041786D02*
X0040550Y0041786D01*
X0040550Y0040187D02*
X0040550Y0040187D01*
X0040550Y0039300D02*
X0035600Y0039300D01*
X0035600Y0037250D01*
X0038500Y0034350D01*
X0040550Y0034350D01*
X0040550Y0039300D01*
X0040550Y0038589D02*
X0040550Y0038589D01*
X0040550Y0036990D02*
X0040550Y0036990D01*
X0040550Y0035392D02*
X0040550Y0035392D01*
X0043642Y0035392D02*
X0057458Y0035392D01*
X0055859Y0036990D02*
X0045241Y0036990D01*
X0045500Y0038589D02*
X0055600Y0038589D01*
X0055600Y0040187D02*
X0045500Y0040187D01*
X0045064Y0041786D02*
X0056036Y0041786D01*
X0060550Y0039300D02*
X0073050Y0039300D01*
X0073050Y0034300D01*
X0075569Y0030596D02*
X0080450Y0030596D01*
X0080450Y0030677D02*
X0080450Y0027350D01*
X0075233Y0027350D01*
X0071250Y0023367D01*
X0071250Y0017733D01*
X0075233Y0013750D01*
X0080867Y0013750D01*
X0084850Y0017733D01*
X0084850Y0021173D01*
X0085254Y0021577D01*
X0085650Y0022533D01*
X0085650Y0030677D01*
X0087450Y0032477D01*
X0087450Y0036123D01*
X0084873Y0038700D01*
X0081227Y0038700D01*
X0078650Y0036123D01*
X0078650Y0032477D01*
X0080450Y0030677D01*
X0080450Y0028998D02*
X0046746Y0028998D01*
X0048345Y0027399D02*
X0080450Y0027399D01*
X0078933Y0032195D02*
X0077167Y0032195D01*
X0077450Y0033793D02*
X0078650Y0033793D01*
X0078650Y0035392D02*
X0077450Y0035392D01*
X0076582Y0036990D02*
X0079518Y0036990D01*
X0081116Y0038589D02*
X0076016Y0038589D01*
X0077614Y0040187D02*
X0102950Y0040187D01*
X0102950Y0038589D02*
X0084984Y0038589D01*
X0086582Y0036990D02*
X0102950Y0036990D01*
X0102950Y0035392D02*
X0087450Y0035392D01*
X0087450Y0033793D02*
X0102950Y0033793D01*
X0102950Y0032195D02*
X0087167Y0032195D01*
X0085650Y0030596D02*
X0101874Y0030596D01*
X0101150Y0028998D02*
X0085650Y0028998D01*
X0085650Y0027399D02*
X0101150Y0027399D01*
X0101577Y0025801D02*
X0099916Y0025801D01*
X0101514Y0024202D02*
X0102950Y0024202D01*
X0105550Y0023050D02*
X0103050Y0020550D01*
X0095550Y0020550D01*
X0091184Y0025801D02*
X0085650Y0025801D01*
X0085650Y0024202D02*
X0089586Y0024202D01*
X0088750Y0022604D02*
X0085650Y0022604D01*
X0084850Y0021005D02*
X0088750Y0021005D01*
X0088750Y0019407D02*
X0084850Y0019407D01*
X0084850Y0017808D02*
X0088750Y0017808D01*
X0090274Y0016210D02*
X0083326Y0016210D01*
X0081728Y0014611D02*
X0091872Y0014611D01*
X0099228Y0014611D02*
X0115622Y0014611D01*
X0114024Y0016210D02*
X0100826Y0016210D01*
X0102350Y0017808D02*
X0112500Y0017808D01*
X0112500Y0019407D02*
X0105584Y0019407D01*
X0107182Y0021005D02*
X0112500Y0021005D01*
X0112500Y0022604D02*
X0108150Y0022604D01*
X0108150Y0024202D02*
X0113336Y0024202D01*
X0114934Y0025801D02*
X0109523Y0025801D01*
X0109950Y0027399D02*
X0123728Y0027399D01*
X0123666Y0025801D02*
X0124624Y0025801D01*
X0123650Y0028998D02*
X0109950Y0028998D01*
X0109226Y0030596D02*
X0123650Y0030596D01*
X0124722Y0032195D02*
X0108150Y0032195D01*
X0108150Y0033793D02*
X0125450Y0033793D01*
X0125450Y0035392D02*
X0108150Y0035392D01*
X0108150Y0036990D02*
X0125450Y0036990D01*
X0125450Y0038589D02*
X0108150Y0038589D01*
X0108150Y0040187D02*
X0125450Y0040187D01*
X0125450Y0041786D02*
X0108150Y0041786D01*
X0108150Y0043384D02*
X0125450Y0043384D01*
X0125450Y0044983D02*
X0108150Y0044983D01*
X0108150Y0046582D02*
X0125450Y0046582D01*
X0125450Y0048180D02*
X0118930Y0048180D01*
X0118850Y0048100D02*
X0121750Y0051000D01*
X0121750Y0053050D01*
X0116800Y0053050D01*
X0116800Y0048100D01*
X0118850Y0048100D01*
X0116800Y0048100D02*
X0116800Y0053050D01*
X0116800Y0053050D01*
X0116800Y0053050D01*
X0111850Y0053050D01*
X0111850Y0055100D01*
X0114750Y0058000D01*
X0116800Y0058000D01*
X0116800Y0053050D01*
X0111850Y0053050D01*
X0111850Y0051000D01*
X0114750Y0048100D01*
X0116800Y0048100D01*
X0116800Y0048180D02*
X0116800Y0048180D01*
X0116800Y0049779D02*
X0116800Y0049779D01*
X0116800Y0051377D02*
X0116800Y0051377D01*
X0116800Y0052976D02*
X0116800Y0052976D01*
X0116800Y0054574D02*
X0116800Y0054574D01*
X0116800Y0056173D02*
X0116800Y0056173D01*
X0116800Y0057771D02*
X0116800Y0057771D01*
X0115553Y0059370D02*
X0097907Y0059370D01*
X0096900Y0060968D02*
X0114330Y0060968D01*
X0114200Y0062567D02*
X0096900Y0062567D01*
X0096900Y0064165D02*
X0103212Y0064165D01*
X0103727Y0063650D02*
X0101150Y0066227D01*
X0101150Y0068050D01*
X0105550Y0068050D01*
X0105550Y0068050D01*
X0105550Y0072450D01*
X0107373Y0072450D01*
X0109950Y0069873D01*
X0109950Y0068050D01*
X0105550Y0068050D01*
X0105550Y0068050D01*
X0105550Y0068050D01*
X0105550Y0072450D01*
X0103727Y0072450D01*
X0101150Y0069873D01*
X0101150Y0068050D01*
X0105550Y0068050D01*
X0109950Y0068050D01*
X0109950Y0066227D01*
X0107373Y0063650D01*
X0105550Y0063650D01*
X0105550Y0068050D01*
X0105550Y0068050D01*
X0105550Y0063650D01*
X0103727Y0063650D01*
X0105550Y0064165D02*
X0105550Y0064165D01*
X0105550Y0065764D02*
X0105550Y0065764D01*
X0105550Y0067362D02*
X0105550Y0067362D01*
X0105550Y0068961D02*
X0105550Y0068961D01*
X0105550Y0070559D02*
X0105550Y0070559D01*
X0105550Y0072158D02*
X0105550Y0072158D01*
X0103435Y0072158D02*
X0099250Y0072158D01*
X0099250Y0073756D02*
X0111850Y0073756D01*
X0111850Y0072158D02*
X0107665Y0072158D01*
X0109263Y0070559D02*
X0112290Y0070559D01*
X0113889Y0068961D02*
X0109950Y0068961D01*
X0109950Y0067362D02*
X0114200Y0067362D01*
X0114200Y0065764D02*
X0109486Y0065764D01*
X0107888Y0064165D02*
X0114200Y0064165D01*
X0116800Y0061800D02*
X0128050Y0050550D01*
X0128050Y0029300D01*
X0128050Y0025550D01*
X0123050Y0020550D01*
X0119300Y0020550D01*
X0124576Y0016210D02*
X0135274Y0016210D01*
X0133750Y0017808D02*
X0126100Y0017808D01*
X0126100Y0019407D02*
X0133750Y0019407D01*
X0133750Y0021005D02*
X0127182Y0021005D01*
X0128781Y0022604D02*
X0133750Y0022604D01*
X0134586Y0024202D02*
X0130306Y0024202D01*
X0130773Y0025801D02*
X0136184Y0025801D01*
X0132372Y0027399D02*
X0147950Y0027399D01*
X0147130Y0028998D02*
X0132450Y0028998D01*
X0132450Y0030596D02*
X0146150Y0030596D01*
X0146150Y0032195D02*
X0131378Y0032195D01*
X0130650Y0033793D02*
X0146321Y0033793D01*
X0147919Y0035392D02*
X0130650Y0035392D01*
X0130650Y0036990D02*
X0147950Y0036990D01*
X0147950Y0038589D02*
X0130650Y0038589D01*
X0130650Y0040187D02*
X0147950Y0040187D01*
X0147950Y0041786D02*
X0130650Y0041786D01*
X0130650Y0043384D02*
X0147950Y0043384D01*
X0147950Y0044983D02*
X0130650Y0044983D01*
X0130650Y0046582D02*
X0147950Y0046582D01*
X0147950Y0048180D02*
X0141430Y0048180D01*
X0141350Y0048100D02*
X0144250Y0051000D01*
X0144250Y0053050D01*
X0139300Y0053050D01*
X0139300Y0048100D01*
X0141350Y0048100D01*
X0139300Y0048100D02*
X0139300Y0053050D01*
X0139300Y0053050D01*
X0139300Y0053050D01*
X0134350Y0053050D01*
X0134350Y0055100D01*
X0137250Y0058000D01*
X0139300Y0058000D01*
X0139300Y0053050D01*
X0134350Y0053050D01*
X0134350Y0051000D01*
X0137250Y0048100D01*
X0139300Y0048100D01*
X0139300Y0048180D02*
X0139300Y0048180D01*
X0139300Y0049779D02*
X0139300Y0049779D01*
X0139300Y0051377D02*
X0139300Y0051377D01*
X0139300Y0052976D02*
X0139300Y0052976D01*
X0139300Y0054574D02*
X0139300Y0054574D01*
X0139300Y0056173D02*
X0139300Y0056173D01*
X0139300Y0057771D02*
X0139300Y0057771D01*
X0138053Y0059370D02*
X0122907Y0059370D01*
X0121309Y0060968D02*
X0136830Y0060968D01*
X0136700Y0062567D02*
X0119710Y0062567D01*
X0119400Y0064165D02*
X0136700Y0064165D01*
X0136700Y0065764D02*
X0130736Y0065764D01*
X0129873Y0064900D02*
X0132450Y0067477D01*
X0132450Y0069300D01*
X0132450Y0071123D01*
X0129873Y0073700D01*
X0128050Y0073700D01*
X0128050Y0069300D01*
X0128050Y0069300D01*
X0132450Y0069300D01*
X0128050Y0069300D01*
X0128050Y0069300D01*
X0128050Y0069300D01*
X0123650Y0069300D01*
X0123650Y0071123D01*
X0126227Y0073700D01*
X0128050Y0073700D01*
X0128050Y0069300D01*
X0128050Y0064900D01*
X0129873Y0064900D01*
X0128050Y0064900D02*
X0128050Y0069300D01*
X0128050Y0069300D01*
X0123650Y0069300D01*
X0123650Y0067477D01*
X0126227Y0064900D01*
X0128050Y0064900D01*
X0128050Y0065764D02*
X0128050Y0065764D01*
X0128050Y0067362D02*
X0128050Y0067362D01*
X0128050Y0068961D02*
X0128050Y0068961D01*
X0128050Y0070559D02*
X0128050Y0070559D01*
X0128050Y0072158D02*
X0128050Y0072158D01*
X0131415Y0072158D02*
X0134350Y0072158D01*
X0134350Y0073756D02*
X0121750Y0073756D01*
X0121750Y0072158D02*
X0124685Y0072158D01*
X0123650Y0070559D02*
X0121310Y0070559D01*
X0119711Y0068961D02*
X0123650Y0068961D01*
X0123765Y0067362D02*
X0119400Y0067362D01*
X0119400Y0065764D02*
X0125364Y0065764D01*
X0124506Y0057771D02*
X0137021Y0057771D01*
X0135422Y0056173D02*
X0126104Y0056173D01*
X0127703Y0054574D02*
X0134350Y0054574D01*
X0134350Y0052976D02*
X0129301Y0052976D01*
X0130522Y0051377D02*
X0134350Y0051377D01*
X0135571Y0049779D02*
X0130650Y0049779D01*
X0130650Y0048180D02*
X0137170Y0048180D01*
X0143029Y0049779D02*
X0147645Y0049779D01*
X0146046Y0051377D02*
X0144250Y0051377D01*
X0144250Y0052976D02*
X0144447Y0052976D01*
X0147006Y0057771D02*
X0158150Y0057771D01*
X0158150Y0056173D02*
X0148604Y0056173D01*
X0150203Y0054574D02*
X0158150Y0054574D01*
X0158150Y0052976D02*
X0151801Y0052976D01*
X0153022Y0051377D02*
X0158150Y0051377D01*
X0158150Y0049779D02*
X0153150Y0049779D01*
X0153150Y0048180D02*
X0158150Y0048180D01*
X0158150Y0046582D02*
X0153150Y0046582D01*
X0153150Y0044983D02*
X0158150Y0044983D01*
X0158150Y0043384D02*
X0153150Y0043384D01*
X0153150Y0041786D02*
X0158150Y0041786D01*
X0158150Y0040187D02*
X0153150Y0040187D01*
X0153150Y0038589D02*
X0158150Y0038589D01*
X0158150Y0036990D02*
X0153150Y0036990D01*
X0153181Y0035392D02*
X0158150Y0035392D01*
X0158150Y0033793D02*
X0154779Y0033793D01*
X0154950Y0032195D02*
X0158150Y0032195D01*
X0158150Y0030596D02*
X0154950Y0030596D01*
X0153970Y0028998D02*
X0158150Y0028998D01*
X0158150Y0027399D02*
X0153150Y0027399D01*
X0153150Y0025801D02*
X0158150Y0025801D01*
X0158150Y0024202D02*
X0152806Y0024202D01*
X0151281Y0022604D02*
X0158150Y0022604D01*
X0158150Y0021005D02*
X0149682Y0021005D01*
X0148084Y0019407D02*
X0158150Y0019407D01*
X0158150Y0017808D02*
X0147350Y0017808D01*
X0145826Y0016210D02*
X0156566Y0016210D01*
X0154967Y0014611D02*
X0144228Y0014611D01*
X0145550Y0020550D02*
X0140550Y0020550D01*
X0145550Y0020550D02*
X0150550Y0025550D01*
X0150550Y0031800D01*
X0150550Y0050550D01*
X0139300Y0061800D01*
X0139300Y0073050D01*
X0139300Y0076800D01*
X0135550Y0080550D01*
X0124300Y0080550D01*
X0121800Y0083050D01*
X0121800Y0101800D01*
X0121800Y0104300D01*
X0121800Y0228050D01*
X0133611Y0239861D01*
X0143857Y0239861D01*
X0140727Y0236804D02*
X0134231Y0236804D01*
X0132633Y0235206D02*
X0140889Y0235206D01*
X0139793Y0233607D02*
X0131034Y0233607D01*
X0129436Y0232009D02*
X0139482Y0232009D01*
X0139775Y0230410D02*
X0127837Y0230410D01*
X0126239Y0228812D02*
X0140845Y0228812D01*
X0140770Y0227213D02*
X0124640Y0227213D01*
X0124400Y0225615D02*
X0139744Y0225615D01*
X0139482Y0224016D02*
X0124400Y0224016D01*
X0124400Y0222418D02*
X0139824Y0222418D01*
X0140964Y0220819D02*
X0124400Y0220819D01*
X0124400Y0219221D02*
X0140652Y0219221D01*
X0139695Y0217622D02*
X0124400Y0217622D01*
X0124400Y0216024D02*
X0138880Y0216024D01*
X0137281Y0214425D02*
X0124400Y0214425D01*
X0124400Y0212827D02*
X0135683Y0212827D01*
X0134483Y0211228D02*
X0124400Y0211228D01*
X0124400Y0209630D02*
X0134400Y0209630D01*
X0134400Y0208031D02*
X0124400Y0208031D01*
X0124400Y0206433D02*
X0134400Y0206433D01*
X0134400Y0204834D02*
X0124400Y0204834D01*
X0124400Y0203236D02*
X0134400Y0203236D01*
X0134400Y0201637D02*
X0124400Y0201637D01*
X0124400Y0200039D02*
X0134400Y0200039D01*
X0134400Y0198440D02*
X0124400Y0198440D01*
X0124400Y0196842D02*
X0134400Y0196842D01*
X0134400Y0195243D02*
X0124400Y0195243D01*
X0124400Y0193645D02*
X0134400Y0193645D01*
X0134400Y0192046D02*
X0124400Y0192046D01*
X0124400Y0190448D02*
X0134400Y0190448D01*
X0134400Y0188849D02*
X0124400Y0188849D01*
X0124400Y0187251D02*
X0134400Y0187251D01*
X0134400Y0185652D02*
X0124400Y0185652D01*
X0124400Y0184053D02*
X0134400Y0184053D01*
X0134400Y0182455D02*
X0124400Y0182455D01*
X0124400Y0180856D02*
X0134400Y0180856D01*
X0134400Y0179258D02*
X0124400Y0179258D01*
X0124400Y0177659D02*
X0134400Y0177659D01*
X0134400Y0176061D02*
X0124400Y0176061D01*
X0124400Y0174462D02*
X0134400Y0174462D01*
X0134400Y0172864D02*
X0124400Y0172864D01*
X0124400Y0171265D02*
X0134400Y0171265D01*
X0134400Y0169667D02*
X0124400Y0169667D01*
X0124400Y0168068D02*
X0134400Y0168068D01*
X0134400Y0166470D02*
X0124400Y0166470D01*
X0124400Y0164871D02*
X0134483Y0164871D01*
X0135683Y0163273D02*
X0124400Y0163273D01*
X0124400Y0161674D02*
X0137282Y0161674D01*
X0138880Y0160076D02*
X0124400Y0160076D01*
X0124400Y0158477D02*
X0140479Y0158477D01*
X0142077Y0156879D02*
X0124400Y0156879D01*
X0124400Y0155280D02*
X0143676Y0155280D01*
X0145274Y0153682D02*
X0124400Y0153682D01*
X0124400Y0152083D02*
X0146873Y0152083D01*
X0148471Y0150485D02*
X0124400Y0150485D01*
X0124400Y0148886D02*
X0150070Y0148886D01*
X0151668Y0147288D02*
X0124400Y0147288D01*
X0124400Y0145689D02*
X0153267Y0145689D01*
X0154865Y0144091D02*
X0124400Y0144091D01*
X0124400Y0142492D02*
X0156464Y0142492D01*
X0158062Y0140894D02*
X0124400Y0140894D01*
X0124400Y0139295D02*
X0158150Y0139295D01*
X0158150Y0137697D02*
X0124400Y0137697D01*
X0124400Y0136098D02*
X0158150Y0136098D01*
X0158150Y0134500D02*
X0124400Y0134500D01*
X0124400Y0132901D02*
X0158150Y0132901D01*
X0158150Y0131303D02*
X0124400Y0131303D01*
X0124400Y0129704D02*
X0158150Y0129704D01*
X0158150Y0128106D02*
X0124400Y0128106D01*
X0124400Y0126507D02*
X0158150Y0126507D01*
X0158150Y0124909D02*
X0124400Y0124909D01*
X0124400Y0123310D02*
X0158150Y0123310D01*
X0158150Y0121712D02*
X0124400Y0121712D01*
X0124400Y0120113D02*
X0158150Y0120113D01*
X0158150Y0118515D02*
X0124400Y0118515D01*
X0124400Y0116916D02*
X0158150Y0116916D01*
X0158150Y0115318D02*
X0124400Y0115318D01*
X0124400Y0113719D02*
X0158150Y0113719D01*
X0158150Y0112120D02*
X0124400Y0112120D01*
X0124400Y0110522D02*
X0158150Y0110522D01*
X0158150Y0108923D02*
X0124400Y0108923D01*
X0124400Y0107325D02*
X0158150Y0107325D01*
X0158150Y0105726D02*
X0124400Y0105726D01*
X0124400Y0104128D02*
X0158150Y0104128D01*
X0158150Y0102529D02*
X0124400Y0102529D01*
X0124400Y0100931D02*
X0158150Y0100931D01*
X0158150Y0099332D02*
X0124400Y0099332D01*
X0124400Y0097734D02*
X0158150Y0097734D01*
X0158150Y0096135D02*
X0142037Y0096135D01*
X0141884Y0096288D02*
X0139396Y0097318D01*
X0136704Y0097318D01*
X0134216Y0096288D01*
X0132312Y0094384D01*
X0131281Y0091896D01*
X0131281Y0089204D01*
X0132312Y0086716D01*
X0134216Y0084812D01*
X0136704Y0083781D01*
X0139396Y0083781D01*
X0141884Y0084812D01*
X0143788Y0086716D01*
X0144818Y0089204D01*
X0144818Y0091896D01*
X0143788Y0094384D01*
X0141884Y0096288D01*
X0143635Y0094537D02*
X0158150Y0094537D01*
X0158150Y0092938D02*
X0144387Y0092938D01*
X0144818Y0091340D02*
X0158150Y0091340D01*
X0158150Y0089741D02*
X0144818Y0089741D01*
X0144379Y0088143D02*
X0158150Y0088143D01*
X0158150Y0086544D02*
X0143616Y0086544D01*
X0142018Y0084946D02*
X0158150Y0084946D01*
X0158150Y0083347D02*
X0125180Y0083347D01*
X0124400Y0084946D02*
X0134082Y0084946D01*
X0132484Y0086544D02*
X0124400Y0086544D01*
X0124400Y0088143D02*
X0131721Y0088143D01*
X0131281Y0089741D02*
X0124400Y0089741D01*
X0124400Y0091340D02*
X0131281Y0091340D01*
X0131713Y0092938D02*
X0124400Y0092938D01*
X0124400Y0094537D02*
X0132465Y0094537D01*
X0134063Y0096135D02*
X0124400Y0096135D01*
X0119525Y0081749D02*
X0119400Y0081749D01*
X0119400Y0080150D02*
X0121023Y0080150D01*
X0122621Y0078552D02*
X0119400Y0078552D01*
X0119897Y0076953D02*
X0135470Y0076953D01*
X0134604Y0075355D02*
X0121496Y0075355D01*
X0116800Y0073050D02*
X0116800Y0235550D01*
X0128985Y0247735D01*
X0143857Y0247735D01*
X0141126Y0251191D02*
X0118618Y0251191D01*
X0120216Y0252789D02*
X0140490Y0252789D01*
X0143857Y0255609D02*
X0119359Y0255609D01*
X0105550Y0241800D01*
X0105550Y0099300D01*
X0094300Y0088050D01*
X0094300Y0071800D01*
X0094300Y0059300D01*
X0105550Y0048050D01*
X0105550Y0028050D01*
X0105550Y0023050D01*
X0102950Y0041786D02*
X0079213Y0041786D01*
X0080811Y0043384D02*
X0102950Y0043384D01*
X0102950Y0044983D02*
X0082410Y0044983D01*
X0084008Y0046582D02*
X0102950Y0046582D01*
X0101743Y0048180D02*
X0097680Y0048180D01*
X0099250Y0049779D02*
X0100145Y0049779D01*
X0102703Y0054574D02*
X0111850Y0054574D01*
X0111850Y0052976D02*
X0104301Y0052976D01*
X0105900Y0051377D02*
X0111850Y0051377D01*
X0113071Y0049779D02*
X0107498Y0049779D01*
X0108150Y0048180D02*
X0114670Y0048180D01*
X0120529Y0049779D02*
X0125145Y0049779D01*
X0123546Y0051377D02*
X0121750Y0051377D01*
X0121750Y0052976D02*
X0121947Y0052976D01*
X0116800Y0061800D02*
X0116800Y0073050D01*
X0113703Y0076953D02*
X0096900Y0076953D01*
X0096900Y0078552D02*
X0114200Y0078552D01*
X0114200Y0080150D02*
X0096900Y0080150D01*
X0096900Y0081749D02*
X0114200Y0081749D01*
X0114200Y0083347D02*
X0096900Y0083347D01*
X0096900Y0084946D02*
X0114200Y0084946D01*
X0114200Y0086544D02*
X0096900Y0086544D01*
X0098070Y0088143D02*
X0114200Y0088143D01*
X0114200Y0089741D02*
X0099668Y0089741D01*
X0101267Y0091340D02*
X0114200Y0091340D01*
X0114200Y0092938D02*
X0102865Y0092938D01*
X0104464Y0094537D02*
X0114200Y0094537D01*
X0114200Y0096135D02*
X0106062Y0096135D01*
X0107661Y0097734D02*
X0114200Y0097734D01*
X0114200Y0099332D02*
X0108150Y0099332D01*
X0108150Y0100931D02*
X0114200Y0100931D01*
X0114200Y0102529D02*
X0108150Y0102529D01*
X0108150Y0104128D02*
X0114200Y0104128D01*
X0114200Y0105726D02*
X0108150Y0105726D01*
X0108150Y0107325D02*
X0114200Y0107325D01*
X0114200Y0108923D02*
X0108150Y0108923D01*
X0108150Y0110522D02*
X0114200Y0110522D01*
X0114200Y0112120D02*
X0108150Y0112120D01*
X0108150Y0113719D02*
X0114200Y0113719D01*
X0114200Y0115318D02*
X0108150Y0115318D01*
X0108150Y0116916D02*
X0114200Y0116916D01*
X0114200Y0118515D02*
X0108150Y0118515D01*
X0108150Y0120113D02*
X0114200Y0120113D01*
X0114200Y0121712D02*
X0108150Y0121712D01*
X0108150Y0123310D02*
X0114200Y0123310D01*
X0114200Y0124909D02*
X0108150Y0124909D01*
X0108150Y0126507D02*
X0114200Y0126507D01*
X0114200Y0128106D02*
X0108150Y0128106D01*
X0108150Y0129704D02*
X0114200Y0129704D01*
X0114200Y0131303D02*
X0108150Y0131303D01*
X0108150Y0132901D02*
X0114200Y0132901D01*
X0114200Y0134500D02*
X0108150Y0134500D01*
X0108150Y0136098D02*
X0114200Y0136098D01*
X0114200Y0137697D02*
X0108150Y0137697D01*
X0108150Y0139295D02*
X0114200Y0139295D01*
X0114200Y0140894D02*
X0108150Y0140894D01*
X0108150Y0142492D02*
X0114200Y0142492D01*
X0114200Y0144091D02*
X0108150Y0144091D01*
X0108150Y0145689D02*
X0114200Y0145689D01*
X0114200Y0147288D02*
X0108150Y0147288D01*
X0108150Y0148886D02*
X0114200Y0148886D01*
X0114200Y0150485D02*
X0108150Y0150485D01*
X0108150Y0152083D02*
X0114200Y0152083D01*
X0114200Y0153682D02*
X0108150Y0153682D01*
X0108150Y0155280D02*
X0114200Y0155280D01*
X0114200Y0156879D02*
X0108150Y0156879D01*
X0108150Y0158477D02*
X0114200Y0158477D01*
X0114200Y0160076D02*
X0108150Y0160076D01*
X0108150Y0161674D02*
X0114200Y0161674D01*
X0114200Y0163273D02*
X0108150Y0163273D01*
X0108150Y0164871D02*
X0114200Y0164871D01*
X0114200Y0166470D02*
X0108150Y0166470D01*
X0108150Y0168068D02*
X0114200Y0168068D01*
X0114200Y0169667D02*
X0108150Y0169667D01*
X0108150Y0171265D02*
X0114200Y0171265D01*
X0114200Y0172864D02*
X0108150Y0172864D01*
X0108150Y0174462D02*
X0114200Y0174462D01*
X0114200Y0176061D02*
X0108150Y0176061D01*
X0108150Y0177659D02*
X0114200Y0177659D01*
X0114200Y0179258D02*
X0108150Y0179258D01*
X0108150Y0180856D02*
X0114200Y0180856D01*
X0114200Y0182455D02*
X0108150Y0182455D01*
X0108150Y0184053D02*
X0114200Y0184053D01*
X0114200Y0185652D02*
X0108150Y0185652D01*
X0108150Y0187251D02*
X0114200Y0187251D01*
X0114200Y0188849D02*
X0108150Y0188849D01*
X0108150Y0190448D02*
X0114200Y0190448D01*
X0114200Y0192046D02*
X0108150Y0192046D01*
X0108150Y0193645D02*
X0114200Y0193645D01*
X0114200Y0195243D02*
X0108150Y0195243D01*
X0108150Y0196842D02*
X0114200Y0196842D01*
X0114200Y0198440D02*
X0108150Y0198440D01*
X0108150Y0200039D02*
X0114200Y0200039D01*
X0114200Y0201637D02*
X0108150Y0201637D01*
X0108150Y0203236D02*
X0114200Y0203236D01*
X0114200Y0204834D02*
X0108150Y0204834D01*
X0108150Y0206433D02*
X0114200Y0206433D01*
X0114200Y0208031D02*
X0108150Y0208031D01*
X0108150Y0209630D02*
X0114200Y0209630D01*
X0114200Y0211228D02*
X0108150Y0211228D01*
X0108150Y0212827D02*
X0114200Y0212827D01*
X0114200Y0214425D02*
X0108150Y0214425D01*
X0108150Y0216024D02*
X0114200Y0216024D01*
X0114200Y0217622D02*
X0108150Y0217622D01*
X0108150Y0219221D02*
X0114200Y0219221D01*
X0114200Y0220819D02*
X0108150Y0220819D01*
X0108150Y0222418D02*
X0114200Y0222418D01*
X0114200Y0224016D02*
X0108150Y0224016D01*
X0108150Y0225615D02*
X0114200Y0225615D01*
X0114200Y0227213D02*
X0108150Y0227213D01*
X0108150Y0228812D02*
X0114200Y0228812D01*
X0114200Y0230410D02*
X0108150Y0230410D01*
X0108150Y0232009D02*
X0114200Y0232009D01*
X0114200Y0233607D02*
X0108150Y0233607D01*
X0108150Y0235206D02*
X0114200Y0235206D01*
X0114505Y0236804D02*
X0108150Y0236804D01*
X0108150Y0238403D02*
X0115976Y0238403D01*
X0117574Y0240001D02*
X0108150Y0240001D01*
X0109027Y0241600D02*
X0119173Y0241600D01*
X0120771Y0243198D02*
X0110625Y0243198D01*
X0112224Y0244797D02*
X0122370Y0244797D01*
X0123968Y0246395D02*
X0113822Y0246395D01*
X0115421Y0247994D02*
X0125567Y0247994D01*
X0127166Y0249592D02*
X0117019Y0249592D01*
X0111408Y0257585D02*
X0081508Y0257585D01*
X0083099Y0255987D02*
X0109810Y0255987D01*
X0108211Y0254388D02*
X0083550Y0254388D01*
X0083550Y0252789D02*
X0106613Y0252789D01*
X0105014Y0251191D02*
X0083550Y0251191D01*
X0083550Y0249592D02*
X0103416Y0249592D01*
X0101817Y0247994D02*
X0083550Y0247994D01*
X0083550Y0246395D02*
X0100218Y0246395D01*
X0098620Y0244797D02*
X0083550Y0244797D01*
X0083550Y0243198D02*
X0097950Y0243198D01*
X0097950Y0241600D02*
X0083550Y0241600D01*
X0083550Y0240001D02*
X0097950Y0240001D01*
X0097950Y0238403D02*
X0083550Y0238403D01*
X0083550Y0236804D02*
X0097950Y0236804D01*
X0097950Y0235206D02*
X0083550Y0235206D01*
X0083550Y0233607D02*
X0097950Y0233607D01*
X0097950Y0232009D02*
X0083550Y0232009D01*
X0083550Y0230410D02*
X0097950Y0230410D01*
X0097950Y0228812D02*
X0083550Y0228812D01*
X0083550Y0227213D02*
X0097950Y0227213D01*
X0097950Y0225615D02*
X0083550Y0225615D01*
X0083550Y0224016D02*
X0097950Y0224016D01*
X0097950Y0222418D02*
X0083550Y0222418D01*
X0083550Y0220819D02*
X0097950Y0220819D01*
X0097950Y0219221D02*
X0083550Y0219221D01*
X0083550Y0217622D02*
X0097950Y0217622D01*
X0097950Y0216024D02*
X0083550Y0216024D01*
X0083550Y0214425D02*
X0097950Y0214425D01*
X0097950Y0212827D02*
X0083550Y0212827D01*
X0083550Y0211228D02*
X0097950Y0211228D01*
X0097950Y0209630D02*
X0083550Y0209630D01*
X0083550Y0208031D02*
X0097950Y0208031D01*
X0097950Y0206433D02*
X0083550Y0206433D01*
X0083550Y0204834D02*
X0097950Y0204834D01*
X0097950Y0203236D02*
X0083550Y0203236D01*
X0083550Y0201637D02*
X0097950Y0201637D01*
X0097950Y0200039D02*
X0083550Y0200039D01*
X0083550Y0198440D02*
X0097950Y0198440D01*
X0097950Y0196842D02*
X0083550Y0196842D01*
X0083550Y0195243D02*
X0097950Y0195243D01*
X0097950Y0193645D02*
X0083550Y0193645D01*
X0083550Y0192046D02*
X0097950Y0192046D01*
X0097950Y0190448D02*
X0083550Y0190448D01*
X0083550Y0188849D02*
X0097950Y0188849D01*
X0097950Y0187251D02*
X0083550Y0187251D01*
X0083550Y0185652D02*
X0097950Y0185652D01*
X0097950Y0184053D02*
X0083550Y0184053D01*
X0083550Y0182455D02*
X0097950Y0182455D01*
X0097950Y0180856D02*
X0083550Y0180856D01*
X0083550Y0179258D02*
X0097950Y0179258D01*
X0097950Y0177659D02*
X0083550Y0177659D01*
X0083550Y0176061D02*
X0097950Y0176061D01*
X0097950Y0174462D02*
X0083550Y0174462D01*
X0083550Y0172864D02*
X0097950Y0172864D01*
X0097950Y0171265D02*
X0083550Y0171265D01*
X0083550Y0169667D02*
X0097950Y0169667D01*
X0097950Y0168068D02*
X0083550Y0168068D01*
X0083550Y0166470D02*
X0097950Y0166470D01*
X0097950Y0164871D02*
X0083550Y0164871D01*
X0083550Y0163273D02*
X0097950Y0163273D01*
X0097950Y0161674D02*
X0083550Y0161674D01*
X0083550Y0160076D02*
X0097950Y0160076D01*
X0097950Y0158477D02*
X0083550Y0158477D01*
X0083550Y0156879D02*
X0097950Y0156879D01*
X0097950Y0155280D02*
X0083550Y0155280D01*
X0083550Y0153682D02*
X0097950Y0153682D01*
X0097950Y0152083D02*
X0083550Y0152083D01*
X0083550Y0150485D02*
X0097950Y0150485D01*
X0097950Y0148886D02*
X0095936Y0148886D01*
X0097450Y0147288D02*
X0097950Y0147288D01*
X0097950Y0145689D02*
X0097450Y0145689D01*
X0097450Y0144091D02*
X0097950Y0144091D01*
X0097950Y0142492D02*
X0096215Y0142492D01*
X0097950Y0140894D02*
X0076050Y0140894D01*
X0080600Y0139295D02*
X0081100Y0139295D01*
X0081100Y0137697D02*
X0080600Y0137697D01*
X0080600Y0136098D02*
X0081100Y0136098D01*
X0081100Y0134500D02*
X0080600Y0134500D01*
X0080600Y0132901D02*
X0081100Y0132901D01*
X0085850Y0139295D02*
X0090573Y0139295D01*
X0091227Y0139950D02*
X0088650Y0137373D01*
X0088650Y0135550D01*
X0093050Y0135550D01*
X0093050Y0135550D01*
X0093050Y0139950D01*
X0094873Y0139950D01*
X0097450Y0137373D01*
X0097450Y0135550D01*
X0093050Y0135550D01*
X0093050Y0135550D01*
X0093050Y0135550D01*
X0093050Y0139950D01*
X0091227Y0139950D01*
X0093050Y0139295D02*
X0093050Y0139295D01*
X0093050Y0137697D02*
X0093050Y0137697D01*
X0093050Y0136098D02*
X0093050Y0136098D01*
X0093050Y0135550D02*
X0088650Y0135550D01*
X0088650Y0133727D01*
X0091227Y0131150D01*
X0093050Y0131150D01*
X0094873Y0131150D01*
X0097450Y0133727D01*
X0097450Y0135550D01*
X0093050Y0135550D01*
X0093050Y0131150D01*
X0093050Y0135550D01*
X0093050Y0135550D01*
X0093050Y0134500D02*
X0093050Y0134500D01*
X0093050Y0132901D02*
X0093050Y0132901D01*
X0093050Y0131303D02*
X0093050Y0131303D01*
X0095025Y0131303D02*
X0097950Y0131303D01*
X0097950Y0132901D02*
X0096624Y0132901D01*
X0097450Y0134500D02*
X0097950Y0134500D01*
X0097950Y0136098D02*
X0097450Y0136098D01*
X0097126Y0137697D02*
X0097950Y0137697D01*
X0097950Y0139295D02*
X0095527Y0139295D01*
X0089885Y0142492D02*
X0086688Y0142492D01*
X0086900Y0137697D02*
X0088974Y0137697D01*
X0088650Y0136098D02*
X0086900Y0136098D01*
X0086900Y0134500D02*
X0088650Y0134500D01*
X0089476Y0132901D02*
X0086816Y0132901D01*
X0091075Y0131303D02*
X0076050Y0131303D01*
X0076050Y0129704D02*
X0097950Y0129704D01*
X0097950Y0128106D02*
X0086900Y0128106D01*
X0086900Y0126507D02*
X0097950Y0126507D01*
X0097950Y0124909D02*
X0086900Y0124909D01*
X0086900Y0123310D02*
X0097950Y0123310D01*
X0097950Y0121712D02*
X0085907Y0121712D01*
X0083051Y0110522D02*
X0097950Y0110522D01*
X0097950Y0108923D02*
X0084649Y0108923D01*
X0084950Y0107325D02*
X0097950Y0107325D01*
X0097049Y0105726D02*
X0084950Y0105726D01*
X0084100Y0104128D02*
X0095451Y0104128D01*
X0099608Y0100931D02*
X0102950Y0100931D01*
X0102950Y0102529D02*
X0101206Y0102529D01*
X0102775Y0104128D02*
X0102950Y0104128D01*
X0100550Y0105550D02*
X0083050Y0088050D01*
X0083050Y0074300D01*
X0083050Y0049300D01*
X0073050Y0039300D01*
X0073458Y0043384D02*
X0063466Y0043384D01*
X0063642Y0035392D02*
X0068650Y0035392D01*
X0068650Y0033793D02*
X0034451Y0033793D01*
X0034200Y0035392D02*
X0037458Y0035392D01*
X0035859Y0036990D02*
X0034200Y0036990D01*
X0034200Y0038589D02*
X0035600Y0038589D01*
X0035600Y0040187D02*
X0034200Y0040187D01*
X0034200Y0041786D02*
X0036036Y0041786D01*
X0037634Y0043384D02*
X0034200Y0043384D01*
X0034627Y0044983D02*
X0075056Y0044983D01*
X0076655Y0046582D02*
X0036226Y0046582D01*
X0037824Y0048180D02*
X0078253Y0048180D01*
X0079852Y0049779D02*
X0039423Y0049779D01*
X0035831Y0052976D02*
X0031698Y0052976D01*
X0031123Y0052400D02*
X0033700Y0054977D01*
X0033700Y0056800D01*
X0033700Y0058623D01*
X0031123Y0061200D01*
X0029300Y0061200D01*
X0029300Y0056800D01*
X0033700Y0056800D01*
X0029300Y0056800D01*
X0029300Y0056800D01*
X0029300Y0056800D01*
X0029300Y0052400D01*
X0031123Y0052400D01*
X0029300Y0052400D02*
X0029300Y0056800D01*
X0029300Y0056800D01*
X0029300Y0056800D01*
X0024900Y0056800D01*
X0024900Y0058623D01*
X0027477Y0061200D01*
X0029300Y0061200D01*
X0029300Y0056800D01*
X0024900Y0056800D01*
X0024900Y0054977D01*
X0027477Y0052400D01*
X0029300Y0052400D01*
X0029300Y0052976D02*
X0029300Y0052976D01*
X0029300Y0054574D02*
X0029300Y0054574D01*
X0029300Y0056173D02*
X0029300Y0056173D01*
X0029300Y0057771D02*
X0029300Y0057771D01*
X0029300Y0059370D02*
X0029300Y0059370D01*
X0029300Y0060968D02*
X0029300Y0060968D01*
X0031354Y0060968D02*
X0036900Y0060968D01*
X0036900Y0062567D02*
X0022300Y0062567D01*
X0022300Y0064165D02*
X0036900Y0064165D01*
X0036614Y0065764D02*
X0031986Y0065764D01*
X0031123Y0064900D02*
X0033700Y0067477D01*
X0033700Y0069300D01*
X0033700Y0071123D01*
X0031123Y0073700D01*
X0029300Y0073700D01*
X0029300Y0069300D01*
X0033700Y0069300D01*
X0029300Y0069300D01*
X0029300Y0069300D01*
X0029300Y0069300D01*
X0029300Y0064900D01*
X0031123Y0064900D01*
X0029300Y0064900D02*
X0029300Y0069300D01*
X0029300Y0069300D01*
X0029300Y0069300D01*
X0024900Y0069300D01*
X0024900Y0071123D01*
X0027477Y0073700D01*
X0029300Y0073700D01*
X0029300Y0069300D01*
X0024900Y0069300D01*
X0024900Y0067477D01*
X0027477Y0064900D01*
X0029300Y0064900D01*
X0029300Y0065764D02*
X0029300Y0065764D01*
X0029300Y0067362D02*
X0029300Y0067362D01*
X0029300Y0068961D02*
X0029300Y0068961D01*
X0029300Y0070559D02*
X0029300Y0070559D01*
X0029300Y0072158D02*
X0029300Y0072158D01*
X0029802Y0074650D02*
X0027565Y0074650D01*
X0027107Y0074772D01*
X0026697Y0075009D01*
X0026362Y0075344D01*
X0026125Y0075755D01*
X0026002Y0076213D01*
X0026002Y0080449D01*
X0029802Y0080449D01*
X0030601Y0080449D01*
X0030601Y0074650D01*
X0032838Y0074650D01*
X0033296Y0074772D01*
X0033706Y0075009D01*
X0034042Y0075344D01*
X0034279Y0075755D01*
X0034401Y0076213D01*
X0034401Y0080449D01*
X0030601Y0080449D01*
X0030601Y0081249D01*
X0029802Y0081249D01*
X0029802Y0087049D01*
X0027565Y0087049D01*
X0027107Y0086926D01*
X0026697Y0086689D01*
X0026362Y0086354D01*
X0026125Y0085944D01*
X0026002Y0085486D01*
X0026002Y0081249D01*
X0029802Y0081249D01*
X0029802Y0080449D01*
X0029802Y0074650D01*
X0029802Y0075355D02*
X0030601Y0075355D01*
X0030601Y0076953D02*
X0029802Y0076953D01*
X0029802Y0078552D02*
X0030601Y0078552D01*
X0030601Y0080150D02*
X0029802Y0080150D01*
X0030601Y0081249D02*
X0034401Y0081249D01*
X0034401Y0085486D01*
X0034279Y0085944D01*
X0034042Y0086354D01*
X0033706Y0086689D01*
X0033296Y0086926D01*
X0032838Y0087049D01*
X0030601Y0087049D01*
X0030601Y0081249D01*
X0030601Y0081749D02*
X0029802Y0081749D01*
X0029802Y0083347D02*
X0030601Y0083347D01*
X0030601Y0084946D02*
X0029802Y0084946D01*
X0029802Y0086544D02*
X0030601Y0086544D01*
X0033851Y0086544D02*
X0035650Y0086544D01*
X0035100Y0084946D02*
X0034401Y0084946D01*
X0034401Y0083347D02*
X0035100Y0083347D01*
X0035100Y0081749D02*
X0034401Y0081749D01*
X0034401Y0080150D02*
X0035100Y0080150D01*
X0035100Y0078552D02*
X0034401Y0078552D01*
X0034401Y0076953D02*
X0035100Y0076953D01*
X0035450Y0075355D02*
X0034048Y0075355D01*
X0036900Y0073756D02*
X0022300Y0073756D01*
X0022300Y0072158D02*
X0025935Y0072158D01*
X0024900Y0070559D02*
X0022300Y0070559D01*
X0022300Y0068961D02*
X0024900Y0068961D01*
X0025015Y0067362D02*
X0022300Y0067362D01*
X0022300Y0065764D02*
X0026614Y0065764D01*
X0027246Y0060968D02*
X0022300Y0060968D01*
X0022300Y0059370D02*
X0025647Y0059370D01*
X0024900Y0057771D02*
X0022300Y0057771D01*
X0022300Y0056173D02*
X0024900Y0056173D01*
X0025303Y0054574D02*
X0022300Y0054574D01*
X0022300Y0052976D02*
X0026902Y0052976D01*
X0031036Y0048180D02*
X0022300Y0048180D01*
X0022300Y0046582D02*
X0029630Y0046582D01*
X0029400Y0044983D02*
X0022300Y0044983D01*
X0022300Y0043384D02*
X0029400Y0043384D01*
X0029400Y0041786D02*
X0022300Y0041786D01*
X0022300Y0040187D02*
X0029400Y0040187D01*
X0029400Y0038589D02*
X0022300Y0038589D01*
X0022300Y0036990D02*
X0029400Y0036990D01*
X0029400Y0035392D02*
X0022300Y0035392D01*
X0022300Y0033793D02*
X0029400Y0033793D01*
X0029556Y0032195D02*
X0022300Y0032195D01*
X0022300Y0030596D02*
X0030859Y0030596D01*
X0032458Y0028998D02*
X0022595Y0028998D01*
X0024193Y0027399D02*
X0034056Y0027399D01*
X0033666Y0025801D02*
X0035958Y0025801D01*
X0035264Y0024202D02*
X0040836Y0024202D01*
X0040000Y0022604D02*
X0036100Y0022604D01*
X0036100Y0021005D02*
X0040000Y0021005D01*
X0040000Y0019407D02*
X0036100Y0019407D01*
X0036100Y0017808D02*
X0040000Y0017808D01*
X0041524Y0016210D02*
X0034576Y0016210D01*
X0032978Y0014611D02*
X0043122Y0014611D01*
X0044400Y0013013D02*
X0006600Y0013013D01*
X0006600Y0014611D02*
X0025622Y0014611D01*
X0024024Y0016210D02*
X0006600Y0016210D01*
X0006600Y0017808D02*
X0022500Y0017808D01*
X0022500Y0019407D02*
X0006600Y0019407D01*
X0006600Y0021005D02*
X0022102Y0021005D01*
X0020503Y0022604D02*
X0006600Y0022604D01*
X0006600Y0024202D02*
X0018905Y0024202D01*
X0017306Y0025801D02*
X0006600Y0025801D01*
X0006600Y0027399D02*
X0016322Y0027399D01*
X0016300Y0028998D02*
X0006600Y0028998D01*
X0006600Y0030596D02*
X0016300Y0030596D01*
X0016300Y0032195D02*
X0006600Y0032195D01*
X0006600Y0033793D02*
X0016300Y0033793D01*
X0016300Y0035392D02*
X0006600Y0035392D01*
X0006600Y0036990D02*
X0016300Y0036990D01*
X0016300Y0038589D02*
X0006600Y0038589D01*
X0006600Y0040187D02*
X0016300Y0040187D01*
X0016300Y0041786D02*
X0006600Y0041786D01*
X0006600Y0043384D02*
X0016300Y0043384D01*
X0016300Y0044983D02*
X0006600Y0044983D01*
X0006600Y0046582D02*
X0016300Y0046582D01*
X0016300Y0048180D02*
X0006600Y0048180D01*
X0006600Y0049779D02*
X0016300Y0049779D01*
X0016300Y0051377D02*
X0006600Y0051377D01*
X0006600Y0052976D02*
X0016300Y0052976D01*
X0016300Y0054574D02*
X0006600Y0054574D01*
X0006600Y0056173D02*
X0016300Y0056173D01*
X0016300Y0057771D02*
X0006600Y0057771D01*
X0006600Y0059370D02*
X0016300Y0059370D01*
X0016300Y0060968D02*
X0006600Y0060968D01*
X0006600Y0062567D02*
X0016300Y0062567D01*
X0016300Y0064165D02*
X0006600Y0064165D01*
X0006600Y0065764D02*
X0016300Y0065764D01*
X0016300Y0067362D02*
X0006600Y0067362D01*
X0006600Y0068961D02*
X0016300Y0068961D01*
X0016300Y0070559D02*
X0006600Y0070559D01*
X0006600Y0072158D02*
X0016300Y0072158D01*
X0016300Y0073756D02*
X0006600Y0073756D01*
X0006600Y0075355D02*
X0016300Y0075355D01*
X0016300Y0076953D02*
X0006600Y0076953D01*
X0006600Y0078552D02*
X0016300Y0078552D01*
X0016300Y0080150D02*
X0006600Y0080150D01*
X0006600Y0081749D02*
X0016300Y0081749D01*
X0016300Y0083347D02*
X0006600Y0083347D01*
X0006600Y0084946D02*
X0016300Y0084946D01*
X0016300Y0086544D02*
X0006600Y0086544D01*
X0006600Y0088143D02*
X0016300Y0088143D01*
X0016300Y0089741D02*
X0006600Y0089741D01*
X0006600Y0091340D02*
X0016300Y0091340D01*
X0016300Y0092938D02*
X0006600Y0092938D01*
X0006600Y0094537D02*
X0016300Y0094537D01*
X0016300Y0096135D02*
X0006600Y0096135D01*
X0006600Y0097734D02*
X0016300Y0097734D01*
X0016300Y0099332D02*
X0006600Y0099332D01*
X0006600Y0100931D02*
X0016300Y0100931D01*
X0016300Y0102529D02*
X0006600Y0102529D01*
X0006600Y0104128D02*
X0016300Y0104128D01*
X0016300Y0105726D02*
X0006600Y0105726D01*
X0006600Y0107325D02*
X0016300Y0107325D01*
X0016300Y0108923D02*
X0006600Y0108923D01*
X0006600Y0110522D02*
X0016300Y0110522D01*
X0016300Y0112120D02*
X0006600Y0112120D01*
X0006600Y0113719D02*
X0016300Y0113719D01*
X0016300Y0115318D02*
X0006600Y0115318D01*
X0006600Y0116916D02*
X0016300Y0116916D01*
X0016300Y0118515D02*
X0006600Y0118515D01*
X0006600Y0120113D02*
X0016300Y0120113D01*
X0016300Y0121712D02*
X0006600Y0121712D01*
X0006600Y0123310D02*
X0016300Y0123310D01*
X0016300Y0124909D02*
X0006600Y0124909D01*
X0006600Y0126507D02*
X0016300Y0126507D01*
X0016300Y0128106D02*
X0006600Y0128106D01*
X0006600Y0129704D02*
X0016300Y0129704D01*
X0016300Y0131303D02*
X0006600Y0131303D01*
X0006600Y0132901D02*
X0016300Y0132901D01*
X0016300Y0134500D02*
X0006600Y0134500D01*
X0006600Y0136098D02*
X0016300Y0136098D01*
X0016300Y0137697D02*
X0006600Y0137697D01*
X0006600Y0139295D02*
X0016300Y0139295D01*
X0016300Y0140894D02*
X0006600Y0140894D01*
X0006600Y0142492D02*
X0016300Y0142492D01*
X0016300Y0144091D02*
X0006600Y0144091D01*
X0006600Y0145689D02*
X0016300Y0145689D01*
X0016300Y0147288D02*
X0006600Y0147288D01*
X0006600Y0148886D02*
X0016300Y0148886D01*
X0016300Y0150485D02*
X0006600Y0150485D01*
X0006600Y0152083D02*
X0016300Y0152083D01*
X0016300Y0153682D02*
X0006600Y0153682D01*
X0006600Y0155280D02*
X0016300Y0155280D01*
X0016300Y0156879D02*
X0006600Y0156879D01*
X0006600Y0158477D02*
X0016300Y0158477D01*
X0016300Y0160076D02*
X0006600Y0160076D01*
X0006600Y0161674D02*
X0016300Y0161674D01*
X0016300Y0163273D02*
X0006600Y0163273D01*
X0006600Y0164871D02*
X0016300Y0164871D01*
X0016300Y0166470D02*
X0006600Y0166470D01*
X0006600Y0168068D02*
X0016300Y0168068D01*
X0016300Y0169667D02*
X0006600Y0169667D01*
X0006600Y0171265D02*
X0016300Y0171265D01*
X0016300Y0172864D02*
X0006600Y0172864D01*
X0006600Y0174462D02*
X0016300Y0174462D01*
X0016300Y0176061D02*
X0006600Y0176061D01*
X0006600Y0177659D02*
X0016300Y0177659D01*
X0016300Y0179258D02*
X0006600Y0179258D01*
X0006600Y0180856D02*
X0016300Y0180856D01*
X0016300Y0182455D02*
X0006600Y0182455D01*
X0006600Y0184053D02*
X0016300Y0184053D01*
X0016300Y0185652D02*
X0006600Y0185652D01*
X0006600Y0187251D02*
X0016300Y0187251D01*
X0016300Y0188849D02*
X0006600Y0188849D01*
X0006600Y0190448D02*
X0016300Y0190448D01*
X0016300Y0192046D02*
X0006600Y0192046D01*
X0006600Y0193645D02*
X0016300Y0193645D01*
X0016300Y0195243D02*
X0006600Y0195243D01*
X0006600Y0196842D02*
X0016300Y0196842D01*
X0016732Y0198440D02*
X0006600Y0198440D01*
X0006600Y0200039D02*
X0018296Y0200039D01*
X0019894Y0201637D02*
X0006600Y0201637D01*
X0006600Y0203236D02*
X0021493Y0203236D01*
X0023091Y0204834D02*
X0006600Y0204834D01*
X0006600Y0206433D02*
X0027710Y0206433D01*
X0027339Y0200039D02*
X0026781Y0200039D01*
X0025183Y0198440D02*
X0053357Y0198440D01*
X0052868Y0200039D02*
X0048761Y0200039D01*
X0049950Y0201637D02*
X0052982Y0201637D01*
X0053801Y0203236D02*
X0049950Y0203236D01*
X0049950Y0204834D02*
X0054587Y0204834D01*
X0053308Y0206433D02*
X0048390Y0206433D01*
X0049774Y0208031D02*
X0052868Y0208031D01*
X0053032Y0209630D02*
X0051372Y0209630D01*
X0052971Y0211228D02*
X0053919Y0211228D01*
X0053550Y0212827D02*
X0054468Y0212827D01*
X0047550Y0214425D02*
X0006600Y0214425D01*
X0006600Y0212827D02*
X0041084Y0212827D01*
X0039486Y0211228D02*
X0006600Y0211228D01*
X0006600Y0209630D02*
X0037887Y0209630D01*
X0036289Y0208031D02*
X0006600Y0208031D01*
X0006600Y0216024D02*
X0047550Y0216024D01*
X0047550Y0217622D02*
X0006600Y0217622D01*
X0006600Y0219221D02*
X0047550Y0219221D01*
X0047550Y0220819D02*
X0006600Y0220819D01*
X0006600Y0222418D02*
X0047550Y0222418D01*
X0047550Y0224016D02*
X0006600Y0224016D01*
X0006600Y0225615D02*
X0047550Y0225615D01*
X0047550Y0227213D02*
X0006600Y0227213D01*
X0006600Y0228812D02*
X0047550Y0228812D01*
X0047550Y0230410D02*
X0006600Y0230410D01*
X0006600Y0232009D02*
X0047550Y0232009D01*
X0047550Y0233607D02*
X0006600Y0233607D01*
X0006600Y0235206D02*
X0047550Y0235206D01*
X0047550Y0236804D02*
X0006600Y0236804D01*
X0006600Y0238403D02*
X0047550Y0238403D01*
X0042376Y0240001D02*
X0033724Y0240001D01*
X0034950Y0241600D02*
X0038606Y0241600D01*
X0037007Y0243198D02*
X0034950Y0243198D01*
X0034950Y0244797D02*
X0035409Y0244797D01*
X0033810Y0246395D02*
X0033427Y0246395D01*
X0033150Y0247994D02*
X0032950Y0247994D01*
X0032950Y0249592D02*
X0033150Y0249592D01*
X0033150Y0251191D02*
X0032950Y0251191D01*
X0032950Y0252789D02*
X0033150Y0252789D01*
X0033111Y0254388D02*
X0033150Y0254388D01*
X0033150Y0262381D02*
X0032442Y0262381D01*
X0033150Y0263979D02*
X0006600Y0263979D01*
X0006600Y0262381D02*
X0028658Y0262381D01*
X0027060Y0260782D02*
X0006600Y0260782D01*
X0006600Y0259184D02*
X0026150Y0259184D01*
X0026150Y0257585D02*
X0006600Y0257585D01*
X0006600Y0255987D02*
X0026391Y0255987D01*
X0027989Y0254388D02*
X0006600Y0254388D01*
X0006600Y0252789D02*
X0028150Y0252789D01*
X0028150Y0251191D02*
X0006600Y0251191D01*
X0006600Y0249592D02*
X0028150Y0249592D01*
X0028150Y0247994D02*
X0006600Y0247994D01*
X0006600Y0246395D02*
X0027673Y0246395D01*
X0026150Y0244797D02*
X0006600Y0244797D01*
X0006600Y0243198D02*
X0026150Y0243198D01*
X0026150Y0241600D02*
X0006600Y0241600D01*
X0006600Y0240001D02*
X0027376Y0240001D01*
X0037950Y0249592D02*
X0047550Y0249592D01*
X0047550Y0247994D02*
X0039000Y0247994D01*
X0040599Y0246395D02*
X0042673Y0246395D01*
X0037950Y0251191D02*
X0047550Y0251191D01*
X0047550Y0252789D02*
X0037950Y0252789D01*
X0037950Y0254388D02*
X0037989Y0254388D01*
X0037950Y0262381D02*
X0038658Y0262381D01*
X0037950Y0263979D02*
X0043085Y0263979D01*
X0044683Y0265578D02*
X0037950Y0265578D01*
X0037950Y0267176D02*
X0046282Y0267176D01*
X0047880Y0268775D02*
X0037950Y0268775D01*
X0037950Y0270373D02*
X0049479Y0270373D01*
X0051078Y0271972D02*
X0037950Y0271972D01*
X0037932Y0273570D02*
X0052676Y0273570D01*
X0054669Y0268775D02*
X0143931Y0268775D01*
X0141363Y0267176D02*
X0059737Y0267176D01*
X0054749Y0267176D02*
X0053070Y0267176D01*
X0053375Y0265578D02*
X0051472Y0265578D01*
X0052868Y0263979D02*
X0049873Y0263979D01*
X0048275Y0262381D02*
X0051898Y0262381D01*
X0050299Y0260782D02*
X0046676Y0260782D01*
X0045078Y0259184D02*
X0048701Y0259184D01*
X0047632Y0257585D02*
X0044950Y0257585D01*
X0044709Y0255987D02*
X0047550Y0255987D01*
X0047550Y0254388D02*
X0043111Y0254388D01*
X0033150Y0265578D02*
X0006600Y0265578D01*
X0006600Y0267176D02*
X0033150Y0267176D01*
X0033150Y0268775D02*
X0006600Y0268775D01*
X0006600Y0270373D02*
X0033150Y0270373D01*
X0033150Y0271972D02*
X0019812Y0271972D01*
X0020634Y0272312D02*
X0022538Y0274216D01*
X0023568Y0276704D01*
X0023568Y0279396D01*
X0022538Y0281884D01*
X0020634Y0283788D01*
X0018146Y0284818D01*
X0015454Y0284818D01*
X0012966Y0283788D01*
X0011062Y0281884D01*
X0010031Y0279396D01*
X0010031Y0276704D01*
X0011062Y0274216D01*
X0012966Y0272312D01*
X0015454Y0271281D01*
X0018146Y0271281D01*
X0020634Y0272312D01*
X0021892Y0273570D02*
X0031636Y0273570D01*
X0027209Y0275169D02*
X0022933Y0275169D01*
X0023568Y0276767D02*
X0026150Y0276767D01*
X0026150Y0278366D02*
X0023568Y0278366D01*
X0023333Y0279964D02*
X0026242Y0279964D01*
X0027840Y0281563D02*
X0022671Y0281563D01*
X0021261Y0283161D02*
X0038517Y0283161D01*
X0037840Y0281563D02*
X0033260Y0281563D01*
X0034858Y0279964D02*
X0036242Y0279964D01*
X0036150Y0278366D02*
X0034950Y0278366D01*
X0035227Y0276767D02*
X0036150Y0276767D01*
X0036825Y0275169D02*
X0037209Y0275169D01*
X0043891Y0275169D02*
X0141287Y0275169D01*
X0139689Y0276767D02*
X0044950Y0276767D01*
X0044950Y0278366D02*
X0138090Y0278366D01*
X0136492Y0279964D02*
X0044858Y0279964D01*
X0043707Y0281563D02*
X0134893Y0281563D01*
X0138484Y0284760D02*
X0156562Y0284760D01*
X0156704Y0284818D02*
X0154216Y0283788D01*
X0152312Y0281884D01*
X0151281Y0279396D01*
X0151281Y0276704D01*
X0152312Y0274216D01*
X0154216Y0272312D01*
X0156704Y0271281D01*
X0159396Y0271281D01*
X0161884Y0272312D01*
X0163788Y0274216D01*
X0164818Y0276704D01*
X0164818Y0279396D01*
X0163788Y0281884D01*
X0161884Y0283788D01*
X0159396Y0284818D01*
X0156704Y0284818D01*
X0153589Y0283161D02*
X0140083Y0283161D01*
X0141681Y0281563D02*
X0152179Y0281563D01*
X0151517Y0279964D02*
X0143280Y0279964D01*
X0144878Y0278366D02*
X0151281Y0278366D01*
X0151281Y0276767D02*
X0146477Y0276767D01*
X0148075Y0275169D02*
X0151917Y0275169D01*
X0152958Y0273570D02*
X0149674Y0273570D01*
X0151272Y0271972D02*
X0155038Y0271972D01*
X0152871Y0270373D02*
X0168201Y0270373D01*
X0168201Y0268775D02*
X0154098Y0268775D01*
X0154200Y0267176D02*
X0168201Y0267176D01*
X0168201Y0265578D02*
X0154200Y0265578D01*
X0154200Y0263979D02*
X0168201Y0263979D01*
X0168201Y0262381D02*
X0154200Y0262381D01*
X0154200Y0260782D02*
X0168201Y0260782D01*
X0168201Y0259184D02*
X0154200Y0259184D01*
X0154200Y0257585D02*
X0168201Y0257585D01*
X0168201Y0255987D02*
X0154200Y0255987D01*
X0154200Y0254388D02*
X0168201Y0254388D01*
X0168201Y0252789D02*
X0154200Y0252789D01*
X0154200Y0251191D02*
X0168201Y0251191D01*
X0168201Y0249592D02*
X0154200Y0249592D01*
X0154200Y0247994D02*
X0168201Y0247994D01*
X0168201Y0246395D02*
X0154200Y0246395D01*
X0154200Y0244797D02*
X0168201Y0244797D01*
X0168201Y0243198D02*
X0154200Y0243198D01*
X0154200Y0241600D02*
X0168201Y0241600D01*
X0168201Y0240001D02*
X0154200Y0240001D01*
X0154200Y0238403D02*
X0168201Y0238403D01*
X0168201Y0236804D02*
X0154200Y0236804D01*
X0154200Y0235206D02*
X0168201Y0235206D01*
X0168201Y0233607D02*
X0154200Y0233607D01*
X0154200Y0232009D02*
X0168201Y0232009D01*
X0168201Y0230410D02*
X0154200Y0230410D01*
X0154200Y0228812D02*
X0168201Y0228812D01*
X0168201Y0227213D02*
X0154200Y0227213D01*
X0154200Y0225615D02*
X0168201Y0225615D01*
X0168201Y0224016D02*
X0154200Y0224016D01*
X0154200Y0222418D02*
X0168201Y0222418D01*
X0168201Y0220819D02*
X0154200Y0220819D01*
X0154200Y0219221D02*
X0168201Y0219221D01*
X0168201Y0217622D02*
X0154200Y0217622D01*
X0154200Y0216024D02*
X0168201Y0216024D01*
X0168201Y0214425D02*
X0153932Y0214425D01*
X0152471Y0212827D02*
X0168201Y0212827D01*
X0168201Y0211228D02*
X0150872Y0211228D01*
X0149274Y0209630D02*
X0168201Y0209630D01*
X0168201Y0208031D02*
X0148232Y0208031D01*
X0147792Y0206433D02*
X0168201Y0206433D01*
X0168201Y0204834D02*
X0146513Y0204834D01*
X0147299Y0203236D02*
X0168201Y0203236D01*
X0168201Y0201637D02*
X0148118Y0201637D01*
X0148232Y0200039D02*
X0168201Y0200039D01*
X0168201Y0198440D02*
X0147743Y0198440D01*
X0146395Y0196842D02*
X0168201Y0196842D01*
X0168201Y0195243D02*
X0147418Y0195243D01*
X0148167Y0193645D02*
X0168201Y0193645D01*
X0168201Y0192046D02*
X0148232Y0192046D01*
X0147694Y0190448D02*
X0168201Y0190448D01*
X0168201Y0188849D02*
X0146192Y0188849D01*
X0141522Y0188849D02*
X0139200Y0188849D01*
X0139200Y0187251D02*
X0168201Y0187251D01*
X0168201Y0185652D02*
X0139200Y0185652D01*
X0139200Y0184053D02*
X0168201Y0184053D01*
X0168201Y0182455D02*
X0139200Y0182455D01*
X0139200Y0180856D02*
X0168201Y0180856D01*
X0168201Y0179258D02*
X0139200Y0179258D01*
X0139200Y0177659D02*
X0168201Y0177659D01*
X0168201Y0176061D02*
X0139200Y0176061D01*
X0139200Y0174462D02*
X0168201Y0174462D01*
X0168201Y0172864D02*
X0139200Y0172864D01*
X0139200Y0171265D02*
X0168201Y0171265D01*
X0168201Y0169667D02*
X0139200Y0169667D01*
X0139200Y0168068D02*
X0168201Y0168068D01*
X0168201Y0166470D02*
X0139274Y0166470D01*
X0140873Y0164871D02*
X0168201Y0164871D01*
X0168201Y0163273D02*
X0142471Y0163273D01*
X0144070Y0161674D02*
X0168201Y0161674D01*
X0168201Y0160076D02*
X0145668Y0160076D01*
X0147267Y0158477D02*
X0168201Y0158477D01*
X0168201Y0156879D02*
X0148865Y0156879D01*
X0150464Y0155280D02*
X0168201Y0155280D01*
X0168201Y0153682D02*
X0152062Y0153682D01*
X0153661Y0152083D02*
X0168201Y0152083D01*
X0168201Y0150485D02*
X0155259Y0150485D01*
X0156858Y0148886D02*
X0168201Y0148886D01*
X0168201Y0147288D02*
X0158456Y0147288D01*
X0160055Y0145689D02*
X0168201Y0145689D01*
X0168201Y0144091D02*
X0161653Y0144091D01*
X0162861Y0142492D02*
X0168201Y0142492D01*
X0168201Y0140894D02*
X0162950Y0140894D01*
X0162950Y0139295D02*
X0168201Y0139295D01*
X0168201Y0137697D02*
X0162950Y0137697D01*
X0162950Y0136098D02*
X0168201Y0136098D01*
X0168201Y0134500D02*
X0162950Y0134500D01*
X0162950Y0132901D02*
X0168201Y0132901D01*
X0168201Y0131303D02*
X0162950Y0131303D01*
X0162950Y0129704D02*
X0168201Y0129704D01*
X0168201Y0128106D02*
X0162950Y0128106D01*
X0162950Y0126507D02*
X0168201Y0126507D01*
X0168201Y0124909D02*
X0162950Y0124909D01*
X0162950Y0123310D02*
X0168201Y0123310D01*
X0168201Y0121712D02*
X0162950Y0121712D01*
X0162950Y0120113D02*
X0168201Y0120113D01*
X0168201Y0118515D02*
X0162950Y0118515D01*
X0162950Y0116916D02*
X0168201Y0116916D01*
X0168201Y0115318D02*
X0162950Y0115318D01*
X0162950Y0113719D02*
X0168201Y0113719D01*
X0168201Y0112120D02*
X0162950Y0112120D01*
X0162950Y0110522D02*
X0168201Y0110522D01*
X0168201Y0108923D02*
X0162950Y0108923D01*
X0162950Y0107325D02*
X0168201Y0107325D01*
X0168201Y0105726D02*
X0162950Y0105726D01*
X0162950Y0104128D02*
X0168201Y0104128D01*
X0168201Y0102529D02*
X0162950Y0102529D01*
X0162950Y0100931D02*
X0168201Y0100931D01*
X0168201Y0099332D02*
X0162950Y0099332D01*
X0162950Y0097734D02*
X0168201Y0097734D01*
X0168201Y0096135D02*
X0162950Y0096135D01*
X0162950Y0094537D02*
X0168201Y0094537D01*
X0168201Y0092938D02*
X0162950Y0092938D01*
X0162950Y0091340D02*
X0168201Y0091340D01*
X0168201Y0089741D02*
X0162950Y0089741D01*
X0162950Y0088143D02*
X0168201Y0088143D01*
X0168201Y0086544D02*
X0162950Y0086544D01*
X0162950Y0084946D02*
X0168201Y0084946D01*
X0168201Y0083347D02*
X0162950Y0083347D01*
X0162950Y0081749D02*
X0168201Y0081749D01*
X0168201Y0080150D02*
X0162950Y0080150D01*
X0162950Y0078552D02*
X0168201Y0078552D01*
X0168201Y0076953D02*
X0162950Y0076953D01*
X0162950Y0075355D02*
X0168201Y0075355D01*
X0168201Y0073756D02*
X0162950Y0073756D01*
X0162950Y0072158D02*
X0168201Y0072158D01*
X0168201Y0070559D02*
X0162950Y0070559D01*
X0162950Y0068961D02*
X0168201Y0068961D01*
X0168201Y0067362D02*
X0162950Y0067362D01*
X0162950Y0065764D02*
X0168201Y0065764D01*
X0168201Y0064165D02*
X0162950Y0064165D01*
X0162950Y0062567D02*
X0168201Y0062567D01*
X0168201Y0060968D02*
X0162950Y0060968D01*
X0162950Y0059370D02*
X0168201Y0059370D01*
X0168201Y0057771D02*
X0162950Y0057771D01*
X0162950Y0056173D02*
X0168201Y0056173D01*
X0168201Y0054574D02*
X0162950Y0054574D01*
X0162950Y0052976D02*
X0168201Y0052976D01*
X0168201Y0051377D02*
X0162950Y0051377D01*
X0162950Y0049779D02*
X0168201Y0049779D01*
X0168201Y0048180D02*
X0162950Y0048180D01*
X0162950Y0046582D02*
X0168201Y0046582D01*
X0168201Y0044983D02*
X0162950Y0044983D01*
X0162950Y0043384D02*
X0168201Y0043384D01*
X0168201Y0041786D02*
X0162950Y0041786D01*
X0162950Y0040187D02*
X0168201Y0040187D01*
X0168201Y0038589D02*
X0162950Y0038589D01*
X0162950Y0036990D02*
X0168201Y0036990D01*
X0168201Y0035392D02*
X0162950Y0035392D01*
X0162950Y0033793D02*
X0168201Y0033793D01*
X0168201Y0032195D02*
X0162950Y0032195D01*
X0162950Y0030596D02*
X0168201Y0030596D01*
X0168201Y0028998D02*
X0162950Y0028998D01*
X0162950Y0027399D02*
X0168201Y0027399D01*
X0168201Y0025801D02*
X0162950Y0025801D01*
X0162950Y0024202D02*
X0168201Y0024202D01*
X0168201Y0022604D02*
X0162950Y0022604D01*
X0162950Y0021005D02*
X0168201Y0021005D01*
X0168201Y0019407D02*
X0162950Y0019407D01*
X0162950Y0017808D02*
X0168201Y0017808D01*
X0168201Y0016210D02*
X0162903Y0016210D01*
X0161755Y0014611D02*
X0168201Y0014611D01*
X0168201Y0013013D02*
X0160157Y0013013D01*
X0158558Y0011414D02*
X0168201Y0011414D01*
X0168201Y0009816D02*
X0156960Y0009816D01*
X0154940Y0008217D02*
X0168201Y0008217D01*
X0153369Y0013013D02*
X0050231Y0013013D01*
X0050478Y0014611D02*
X0058122Y0014611D01*
X0058983Y0013750D02*
X0061700Y0013750D01*
X0061700Y0020450D01*
X0061900Y0020450D01*
X0061900Y0020650D01*
X0068600Y0020650D01*
X0068600Y0023367D01*
X0064617Y0027350D01*
X0061900Y0027350D01*
X0061900Y0020650D01*
X0061700Y0020650D01*
X0061700Y0027350D01*
X0058983Y0027350D01*
X0055000Y0023367D01*
X0055000Y0020650D01*
X0061700Y0020650D01*
X0061700Y0020450D01*
X0055000Y0020450D01*
X0055000Y0017733D01*
X0058983Y0013750D01*
X0056524Y0016210D02*
X0052076Y0016210D01*
X0053600Y0017808D02*
X0055000Y0017808D01*
X0055000Y0019407D02*
X0053600Y0019407D01*
X0053600Y0021005D02*
X0055000Y0021005D01*
X0055000Y0022604D02*
X0053600Y0022604D01*
X0052764Y0024202D02*
X0055836Y0024202D01*
X0057434Y0025801D02*
X0051166Y0025801D01*
X0045042Y0011414D02*
X0006600Y0011414D01*
X0006600Y0009816D02*
X0046640Y0009816D01*
X0048660Y0008217D02*
X0006600Y0008217D01*
X0022300Y0049779D02*
X0032634Y0049779D01*
X0034233Y0051377D02*
X0022300Y0051377D01*
X0033297Y0054574D02*
X0035303Y0054574D01*
X0034900Y0056173D02*
X0033700Y0056173D01*
X0033700Y0057771D02*
X0034900Y0057771D01*
X0035647Y0059370D02*
X0032953Y0059370D01*
X0033585Y0067362D02*
X0035015Y0067362D01*
X0034900Y0068961D02*
X0033700Y0068961D01*
X0033700Y0070559D02*
X0034900Y0070559D01*
X0035935Y0072158D02*
X0032665Y0072158D01*
X0026356Y0075355D02*
X0022300Y0075355D01*
X0022300Y0076953D02*
X0026002Y0076953D01*
X0026002Y0078552D02*
X0022300Y0078552D01*
X0022300Y0080150D02*
X0026002Y0080150D01*
X0026002Y0081749D02*
X0022300Y0081749D01*
X0022300Y0083347D02*
X0026002Y0083347D01*
X0026002Y0084946D02*
X0022300Y0084946D01*
X0022300Y0086544D02*
X0026552Y0086544D01*
X0025758Y0113719D02*
X0022300Y0113719D01*
X0022300Y0115318D02*
X0025758Y0115318D01*
X0025758Y0116916D02*
X0022300Y0116916D01*
X0022300Y0118515D02*
X0025758Y0118515D01*
X0025758Y0120113D02*
X0022300Y0120113D01*
X0022300Y0121712D02*
X0025758Y0121712D01*
X0025758Y0123310D02*
X0022300Y0123310D01*
X0022300Y0124909D02*
X0025758Y0124909D01*
X0025758Y0126507D02*
X0022300Y0126507D01*
X0022300Y0128106D02*
X0025758Y0128106D01*
X0025758Y0129704D02*
X0022300Y0129704D01*
X0022300Y0131303D02*
X0025758Y0131303D01*
X0025758Y0132901D02*
X0022300Y0132901D01*
X0022300Y0134500D02*
X0025758Y0134500D01*
X0025758Y0136098D02*
X0022300Y0136098D01*
X0022300Y0137697D02*
X0025758Y0137697D01*
X0025758Y0139295D02*
X0022300Y0139295D01*
X0022300Y0140894D02*
X0025758Y0140894D01*
X0025758Y0142492D02*
X0022300Y0142492D01*
X0022300Y0144091D02*
X0025758Y0144091D01*
X0025758Y0145689D02*
X0022300Y0145689D01*
X0022300Y0147288D02*
X0025758Y0147288D01*
X0025758Y0148886D02*
X0022300Y0148886D01*
X0022300Y0150485D02*
X0025758Y0150485D01*
X0025758Y0152083D02*
X0022300Y0152083D01*
X0022300Y0153682D02*
X0025758Y0153682D01*
X0025758Y0155280D02*
X0022300Y0155280D01*
X0022300Y0156879D02*
X0025758Y0156879D01*
X0026680Y0158477D02*
X0022300Y0158477D01*
X0022300Y0160076D02*
X0027140Y0160076D01*
X0028466Y0158750D02*
X0031300Y0158750D01*
X0031300Y0166300D01*
X0032300Y0166300D01*
X0032300Y0167300D01*
X0039850Y0167300D01*
X0039850Y0170134D01*
X0035134Y0174850D01*
X0032300Y0174850D01*
X0032300Y0167300D01*
X0031300Y0167300D01*
X0031300Y0174850D01*
X0028466Y0174850D01*
X0023750Y0170134D01*
X0023750Y0167300D01*
X0031300Y0167300D01*
X0031300Y0166300D01*
X0023750Y0166300D01*
X0023750Y0163466D01*
X0028466Y0158750D01*
X0031300Y0160076D02*
X0032300Y0160076D01*
X0032300Y0158750D02*
X0035134Y0158750D01*
X0039850Y0163466D01*
X0039850Y0166300D01*
X0032300Y0166300D01*
X0032300Y0158750D01*
X0032300Y0161674D02*
X0031300Y0161674D01*
X0031300Y0163273D02*
X0032300Y0163273D01*
X0032300Y0164871D02*
X0031300Y0164871D01*
X0031300Y0166470D02*
X0022300Y0166470D01*
X0022300Y0168068D02*
X0023750Y0168068D01*
X0023750Y0169667D02*
X0022300Y0169667D01*
X0022300Y0171265D02*
X0024881Y0171265D01*
X0026480Y0172864D02*
X0022300Y0172864D01*
X0022300Y0174462D02*
X0028078Y0174462D01*
X0027056Y0177659D02*
X0022300Y0177659D01*
X0022300Y0176061D02*
X0063296Y0176061D01*
X0061698Y0177659D02*
X0036544Y0177659D01*
X0038142Y0179258D02*
X0060099Y0179258D01*
X0058501Y0180856D02*
X0039741Y0180856D01*
X0035522Y0174462D02*
X0064895Y0174462D01*
X0066493Y0172864D02*
X0037120Y0172864D01*
X0038719Y0171265D02*
X0068092Y0171265D01*
X0069690Y0169667D02*
X0039850Y0169667D01*
X0039850Y0168068D02*
X0070050Y0168068D01*
X0070050Y0166470D02*
X0032300Y0166470D01*
X0032300Y0168068D02*
X0031300Y0168068D01*
X0031300Y0169667D02*
X0032300Y0169667D01*
X0032300Y0171265D02*
X0031300Y0171265D01*
X0031300Y0172864D02*
X0032300Y0172864D01*
X0032300Y0174462D02*
X0031300Y0174462D01*
X0025458Y0179258D02*
X0022300Y0179258D01*
X0022300Y0180856D02*
X0023859Y0180856D01*
X0023750Y0182455D02*
X0022300Y0182455D01*
X0022300Y0184053D02*
X0023750Y0184053D01*
X0023750Y0185652D02*
X0022300Y0185652D01*
X0022300Y0187251D02*
X0023750Y0187251D01*
X0024965Y0188849D02*
X0022300Y0188849D01*
X0022300Y0190448D02*
X0026563Y0190448D01*
X0028162Y0192046D02*
X0022300Y0192046D01*
X0022300Y0193645D02*
X0052977Y0193645D01*
X0052868Y0192617D02*
X0052868Y0192273D01*
X0052976Y0191592D01*
X0053189Y0190938D01*
X0053501Y0190324D01*
X0053906Y0189767D01*
X0054393Y0189280D01*
X0054950Y0188875D01*
X0055564Y0188563D01*
X0056218Y0188350D01*
X0056899Y0188242D01*
X0057243Y0188242D01*
X0057243Y0192617D01*
X0052868Y0192617D01*
X0052904Y0192046D02*
X0035438Y0192046D01*
X0037037Y0190448D02*
X0053438Y0190448D01*
X0055001Y0188849D02*
X0038635Y0188849D01*
X0043727Y0198650D02*
X0045550Y0198650D01*
X0045550Y0203050D01*
X0041150Y0203050D01*
X0041150Y0201227D01*
X0043727Y0198650D01*
X0042339Y0200039D02*
X0033761Y0200039D01*
X0038380Y0201637D02*
X0041150Y0201637D01*
X0041150Y0203236D02*
X0039978Y0203236D01*
X0045550Y0203236D02*
X0045550Y0203236D01*
X0045550Y0204834D02*
X0045550Y0204834D01*
X0045550Y0206433D02*
X0045550Y0206433D01*
X0045550Y0201637D02*
X0045550Y0201637D01*
X0045550Y0200039D02*
X0045550Y0200039D01*
X0053743Y0195243D02*
X0022300Y0195243D01*
X0023584Y0196842D02*
X0054705Y0196842D01*
X0059780Y0196842D02*
X0077550Y0196842D01*
X0077550Y0198440D02*
X0061129Y0198440D01*
X0061618Y0200039D02*
X0077550Y0200039D01*
X0077550Y0201637D02*
X0061503Y0201637D01*
X0060685Y0203236D02*
X0077550Y0203236D01*
X0077550Y0204834D02*
X0059899Y0204834D01*
X0061178Y0206433D02*
X0077550Y0206433D01*
X0077550Y0208031D02*
X0061618Y0208031D01*
X0061454Y0209630D02*
X0077550Y0209630D01*
X0077550Y0211228D02*
X0060567Y0211228D01*
X0060018Y0212827D02*
X0077550Y0212827D01*
X0077550Y0214425D02*
X0061227Y0214425D01*
X0061618Y0216024D02*
X0077550Y0216024D01*
X0077550Y0217622D02*
X0061405Y0217622D01*
X0060448Y0219221D02*
X0077550Y0219221D01*
X0077550Y0220819D02*
X0060136Y0220819D01*
X0061276Y0222418D02*
X0077550Y0222418D01*
X0077550Y0224016D02*
X0061618Y0224016D01*
X0061356Y0225615D02*
X0077550Y0225615D01*
X0077550Y0227213D02*
X0060330Y0227213D01*
X0060255Y0228812D02*
X0077550Y0228812D01*
X0077550Y0230410D02*
X0061325Y0230410D01*
X0061618Y0232009D02*
X0077550Y0232009D01*
X0077550Y0233607D02*
X0061307Y0233607D01*
X0060211Y0235206D02*
X0077550Y0235206D01*
X0077550Y0236804D02*
X0060373Y0236804D01*
X0061374Y0238403D02*
X0077550Y0238403D01*
X0077550Y0240001D02*
X0061618Y0240001D01*
X0061258Y0241600D02*
X0077550Y0241600D01*
X0077550Y0243198D02*
X0060092Y0243198D01*
X0060492Y0244797D02*
X0077550Y0244797D01*
X0077550Y0246395D02*
X0061423Y0246395D01*
X0061618Y0247994D02*
X0077550Y0247994D01*
X0077550Y0249592D02*
X0061209Y0249592D01*
X0059974Y0251191D02*
X0077550Y0251191D01*
X0077550Y0252789D02*
X0060610Y0252789D01*
X0061472Y0254388D02*
X0076219Y0254388D01*
X0074621Y0255987D02*
X0061618Y0255987D01*
X0061160Y0257585D02*
X0073022Y0257585D01*
X0071424Y0259184D02*
X0059855Y0259184D01*
X0073515Y0265578D02*
X0119401Y0265578D01*
X0117802Y0263979D02*
X0075114Y0263979D01*
X0076712Y0262381D02*
X0116204Y0262381D01*
X0114605Y0260782D02*
X0078311Y0260782D01*
X0079909Y0259184D02*
X0113007Y0259184D01*
X0120983Y0263483D02*
X0100550Y0243050D01*
X0100550Y0105550D01*
X0101905Y0099332D02*
X0098009Y0099332D01*
X0096411Y0097734D02*
X0100307Y0097734D01*
X0098708Y0096135D02*
X0094812Y0096135D01*
X0093214Y0094537D02*
X0097110Y0094537D01*
X0095511Y0092938D02*
X0091615Y0092938D01*
X0090017Y0091340D02*
X0093913Y0091340D01*
X0092314Y0089741D02*
X0088418Y0089741D01*
X0086820Y0088143D02*
X0091700Y0088143D01*
X0091700Y0086544D02*
X0085650Y0086544D01*
X0085650Y0084946D02*
X0091700Y0084946D01*
X0091700Y0083347D02*
X0085650Y0083347D01*
X0085650Y0081749D02*
X0091700Y0081749D01*
X0091700Y0080150D02*
X0085650Y0080150D01*
X0085650Y0078552D02*
X0091700Y0078552D01*
X0091700Y0076953D02*
X0086619Y0076953D01*
X0087450Y0075355D02*
X0090854Y0075355D01*
X0089350Y0073756D02*
X0087450Y0073756D01*
X0087130Y0072158D02*
X0089350Y0072158D01*
X0089350Y0070559D02*
X0085650Y0070559D01*
X0085650Y0068961D02*
X0090139Y0068961D01*
X0091700Y0067362D02*
X0085650Y0067362D01*
X0085650Y0065764D02*
X0091700Y0065764D01*
X0091700Y0064165D02*
X0085650Y0064165D01*
X0085650Y0062567D02*
X0091700Y0062567D01*
X0091700Y0060968D02*
X0085650Y0060968D01*
X0085650Y0059370D02*
X0091700Y0059370D01*
X0092152Y0057771D02*
X0085650Y0057771D01*
X0085650Y0056173D02*
X0091672Y0056173D01*
X0090074Y0054574D02*
X0085650Y0054574D01*
X0085650Y0052976D02*
X0089350Y0052976D01*
X0089350Y0051800D02*
X0089350Y0049750D01*
X0092250Y0046850D01*
X0094300Y0046850D01*
X0094300Y0051800D01*
X0089350Y0051800D01*
X0089350Y0051377D02*
X0085650Y0051377D01*
X0085650Y0049779D02*
X0089350Y0049779D01*
X0090920Y0048180D02*
X0085400Y0048180D01*
X0080450Y0060968D02*
X0041700Y0060968D01*
X0036049Y0032195D02*
X0068933Y0032195D01*
X0070531Y0030596D02*
X0037648Y0030596D01*
X0061700Y0025801D02*
X0061900Y0025801D01*
X0061900Y0024202D02*
X0061700Y0024202D01*
X0061700Y0022604D02*
X0061900Y0022604D01*
X0061900Y0021005D02*
X0061700Y0021005D01*
X0061900Y0020450D02*
X0068600Y0020450D01*
X0068600Y0017733D01*
X0064617Y0013750D01*
X0061900Y0013750D01*
X0061900Y0020450D01*
X0061900Y0019407D02*
X0061700Y0019407D01*
X0061700Y0017808D02*
X0061900Y0017808D01*
X0061900Y0016210D02*
X0061700Y0016210D01*
X0061700Y0014611D02*
X0061900Y0014611D01*
X0065478Y0014611D02*
X0074372Y0014611D01*
X0072774Y0016210D02*
X0067076Y0016210D01*
X0068600Y0017808D02*
X0071250Y0017808D01*
X0071250Y0019407D02*
X0068600Y0019407D01*
X0068600Y0021005D02*
X0071250Y0021005D01*
X0071250Y0022604D02*
X0068600Y0022604D01*
X0067764Y0024202D02*
X0072086Y0024202D01*
X0073684Y0025801D02*
X0066166Y0025801D01*
X0078050Y0020550D02*
X0080550Y0020550D01*
X0083050Y0023050D01*
X0083050Y0034300D01*
X0094300Y0048180D02*
X0094300Y0048180D01*
X0094300Y0049779D02*
X0094300Y0049779D01*
X0094300Y0051377D02*
X0094300Y0051377D01*
X0099506Y0057771D02*
X0114521Y0057771D01*
X0112922Y0056173D02*
X0101104Y0056173D01*
X0101614Y0065764D02*
X0096900Y0065764D01*
X0096900Y0067362D02*
X0101150Y0067362D01*
X0101150Y0068961D02*
X0098461Y0068961D01*
X0099250Y0070559D02*
X0101837Y0070559D01*
X0097746Y0075355D02*
X0112104Y0075355D01*
X0132450Y0070559D02*
X0134790Y0070559D01*
X0136389Y0068961D02*
X0132450Y0068961D01*
X0132335Y0067362D02*
X0136700Y0067362D01*
X0141900Y0067362D02*
X0158150Y0067362D01*
X0158150Y0065764D02*
X0141900Y0065764D01*
X0141900Y0064165D02*
X0158150Y0064165D01*
X0158150Y0062567D02*
X0142210Y0062567D01*
X0143809Y0060968D02*
X0158150Y0060968D01*
X0158150Y0059370D02*
X0145407Y0059370D01*
X0148727Y0067400D02*
X0146150Y0069977D01*
X0146150Y0071800D01*
X0150550Y0071800D01*
X0150550Y0071800D01*
X0150550Y0076200D01*
X0152373Y0076200D01*
X0154950Y0073623D01*
X0154950Y0071800D01*
X0150550Y0071800D01*
X0150550Y0071800D01*
X0150550Y0071800D01*
X0150550Y0076200D01*
X0148727Y0076200D01*
X0146150Y0073623D01*
X0146150Y0071800D01*
X0150550Y0071800D01*
X0154950Y0071800D01*
X0154950Y0069977D01*
X0152373Y0067400D01*
X0150550Y0067400D01*
X0150550Y0071800D01*
X0150550Y0071800D01*
X0150550Y0067400D01*
X0148727Y0067400D01*
X0147167Y0068961D02*
X0142211Y0068961D01*
X0143810Y0070559D02*
X0146150Y0070559D01*
X0146150Y0072158D02*
X0144250Y0072158D01*
X0144250Y0073756D02*
X0146284Y0073756D01*
X0147882Y0075355D02*
X0143996Y0075355D01*
X0142397Y0076953D02*
X0158150Y0076953D01*
X0158150Y0075355D02*
X0153218Y0075355D01*
X0154816Y0073756D02*
X0158150Y0073756D01*
X0158150Y0072158D02*
X0154950Y0072158D01*
X0154950Y0070559D02*
X0158150Y0070559D01*
X0158150Y0068961D02*
X0153933Y0068961D01*
X0150550Y0068961D02*
X0150550Y0068961D01*
X0150550Y0070559D02*
X0150550Y0070559D01*
X0150550Y0072158D02*
X0150550Y0072158D01*
X0150550Y0073756D02*
X0150550Y0073756D01*
X0150550Y0075355D02*
X0150550Y0075355D01*
X0158150Y0078552D02*
X0141225Y0078552D01*
X0139627Y0080150D02*
X0158150Y0080150D01*
X0158150Y0081749D02*
X0138028Y0081749D01*
X0144916Y0025801D02*
X0147124Y0025801D01*
X0136872Y0014611D02*
X0122978Y0014611D01*
X0079481Y0076953D02*
X0076619Y0076953D01*
X0077450Y0075355D02*
X0078650Y0075355D01*
X0078650Y0073756D02*
X0077450Y0073756D01*
X0077130Y0072158D02*
X0078970Y0072158D01*
X0053779Y0110522D02*
X0047992Y0110522D01*
X0048187Y0108923D02*
X0052181Y0108923D01*
X0050582Y0107325D02*
X0048187Y0107325D01*
X0048187Y0105726D02*
X0048984Y0105726D01*
X0076050Y0150485D02*
X0077550Y0150485D01*
X0077550Y0152083D02*
X0076050Y0152083D01*
X0076050Y0153682D02*
X0077550Y0153682D01*
X0077550Y0155280D02*
X0076050Y0155280D01*
X0076050Y0156879D02*
X0077550Y0156879D01*
X0077550Y0158477D02*
X0076050Y0158477D01*
X0076050Y0160076D02*
X0077550Y0160076D01*
X0077550Y0161674D02*
X0076050Y0161674D01*
X0076050Y0163273D02*
X0077550Y0163273D01*
X0077550Y0164871D02*
X0076050Y0164871D01*
X0076050Y0166470D02*
X0077550Y0166470D01*
X0077550Y0168068D02*
X0076050Y0168068D01*
X0076050Y0169667D02*
X0077550Y0169667D01*
X0077550Y0171265D02*
X0076001Y0171265D01*
X0074979Y0172864D02*
X0077550Y0172864D01*
X0077550Y0174462D02*
X0073380Y0174462D01*
X0071782Y0176061D02*
X0077550Y0176061D01*
X0077550Y0177659D02*
X0070183Y0177659D01*
X0068585Y0179258D02*
X0077550Y0179258D01*
X0077550Y0180856D02*
X0066986Y0180856D01*
X0065388Y0182455D02*
X0077550Y0182455D01*
X0077550Y0184053D02*
X0063789Y0184053D01*
X0062191Y0185652D02*
X0077550Y0185652D01*
X0077550Y0187251D02*
X0060016Y0187251D01*
X0059484Y0188849D02*
X0077550Y0188849D01*
X0077550Y0190448D02*
X0061048Y0190448D01*
X0061582Y0192046D02*
X0077550Y0192046D01*
X0077550Y0193645D02*
X0061509Y0193645D01*
X0060742Y0195243D02*
X0077550Y0195243D01*
X0070050Y0164871D02*
X0039850Y0164871D01*
X0039657Y0163273D02*
X0070050Y0163273D01*
X0070050Y0161674D02*
X0038059Y0161674D01*
X0036460Y0160076D02*
X0070050Y0160076D01*
X0070050Y0158477D02*
X0069420Y0158477D01*
X0086409Y0148886D02*
X0090164Y0148886D01*
X0057243Y0188849D02*
X0057243Y0188849D01*
X0057243Y0190448D02*
X0057243Y0190448D01*
X0057243Y0192046D02*
X0057243Y0192046D01*
X0034690Y0206433D02*
X0033390Y0206433D01*
X0023750Y0164871D02*
X0022300Y0164871D01*
X0022300Y0163273D02*
X0023943Y0163273D01*
X0025541Y0161674D02*
X0022300Y0161674D01*
X0013788Y0271972D02*
X0006600Y0271972D01*
X0006600Y0273570D02*
X0011708Y0273570D01*
X0010667Y0275169D02*
X0006600Y0275169D01*
X0006600Y0276767D02*
X0010031Y0276767D01*
X0010031Y0278366D02*
X0006600Y0278366D01*
X0006600Y0279964D02*
X0010267Y0279964D01*
X0010929Y0281563D02*
X0006600Y0281563D01*
X0006600Y0283161D02*
X0012339Y0283161D01*
X0015312Y0284760D02*
X0006600Y0284760D01*
X0018288Y0284760D02*
X0040116Y0284760D01*
X0120983Y0263483D02*
X0143857Y0263483D01*
X0159538Y0284760D02*
X0168201Y0284760D01*
X0168201Y0283161D02*
X0162511Y0283161D01*
X0163921Y0281563D02*
X0168201Y0281563D01*
X0168201Y0279964D02*
X0164583Y0279964D01*
X0164818Y0278366D02*
X0168201Y0278366D01*
X0168201Y0276767D02*
X0164818Y0276767D01*
X0164183Y0275169D02*
X0168201Y0275169D01*
X0168201Y0273570D02*
X0163142Y0273570D01*
X0161062Y0271972D02*
X0168201Y0271972D01*
X0139646Y0209630D02*
X0139274Y0209630D01*
X0139200Y0208031D02*
X0139482Y0208031D01*
X0139200Y0206433D02*
X0139922Y0206433D01*
X0139200Y0204834D02*
X0141201Y0204834D01*
X0140415Y0203236D02*
X0139200Y0203236D01*
X0139200Y0201637D02*
X0139597Y0201637D01*
X0139482Y0200039D02*
X0139200Y0200039D01*
X0139200Y0198440D02*
X0139971Y0198440D01*
X0139200Y0196842D02*
X0141320Y0196842D01*
X0140296Y0195243D02*
X0139200Y0195243D01*
X0139200Y0193645D02*
X0139548Y0193645D01*
X0139482Y0192046D02*
X0139200Y0192046D01*
X0139200Y0190448D02*
X0140020Y0190448D01*
D21*
X0143857Y0208365D02*
X0144615Y0208365D01*
X0151800Y0215550D01*
X0151800Y0268050D01*
X0135550Y0284300D01*
X0043050Y0284300D01*
X0040550Y0281800D01*
X0035550Y0273050D02*
X0035550Y0248050D01*
X0040550Y0243050D01*
X0045550Y0243050D01*
X0040550Y0258050D02*
X0054300Y0271800D01*
X0144300Y0271800D01*
X0149300Y0266800D01*
X0149300Y0228050D01*
X0145363Y0224113D01*
X0143857Y0224113D01*
X0143857Y0216239D02*
X0142489Y0216239D01*
X0136800Y0210550D01*
X0136800Y0165550D01*
X0160550Y0141800D01*
X0160550Y0016800D01*
X0154300Y0010550D01*
X0049300Y0010550D01*
X0046800Y0013050D01*
X0046800Y0020550D01*
X0046800Y0025550D01*
X0044300Y0028050D01*
X0036800Y0028050D01*
X0031800Y0033050D01*
X0031800Y0045550D01*
X0039300Y0053050D01*
X0039300Y0056800D01*
X0039300Y0069300D01*
X0039300Y0080849D01*
X0030550Y0243050D02*
X0030550Y0258050D01*
X0035550Y0273050D02*
X0030550Y0278050D01*
D22*
X0040550Y0278050D02*
X0040550Y0281800D01*
D23*
X0057243Y0263483D02*
X0050550Y0256790D01*
X0050550Y0213050D01*
X0048050Y0210550D01*
X0043050Y0210550D01*
X0035550Y0203050D01*
X0030550Y0203050D01*
X0025550Y0203050D01*
X0019300Y0196800D01*
X0019300Y0028050D01*
X0026800Y0020550D01*
X0029300Y0020550D01*
X0050550Y0065550D02*
X0048398Y0067702D01*
X0048398Y0080849D01*
X0048698Y0080550D01*
X0050550Y0080550D01*
X0050550Y0081800D01*
X0050550Y0103050D01*
X0055550Y0108050D01*
X0068050Y0108050D01*
X0076800Y0116800D01*
X0080550Y0116800D01*
X0080850Y0117100D01*
X0080850Y0125550D01*
X0074300Y0125550D01*
X0073050Y0126800D01*
X0073050Y0170550D01*
X0059300Y0184300D01*
X0031800Y0184300D01*
X0080550Y0145850D02*
X0080850Y0145550D01*
X0093050Y0145550D01*
X0080550Y0145850D02*
X0080550Y0254300D01*
X0071367Y0263483D01*
X0057243Y0263483D01*
M02*
