%
M48
M72
T01C0.03150
T02C0.03200
T03C0.03600
T04C0.03937
T05C0.05200
%
T01
X57243Y192617
X57243Y200491
X57243Y208365
X57243Y216239
X57243Y224113
X57243Y231987
X57243Y239861
X57243Y247735
X57243Y255609
X57243Y263483
X143857Y263483
X143857Y255609
X143857Y247735
X143857Y239861
X143857Y231987
X143857Y224113
X143857Y216239
X143857Y208365
X143857Y200491
X143857Y192617
T02
X93050Y145550
X93050Y135550
X80550Y116800
X80550Y106800
X83050Y74300
X73050Y74300
X61800Y65550
X61800Y55550
X60550Y39300
X50550Y55550
X50550Y65550
X39300Y69300
X39300Y56800
X29300Y56800
X29300Y69300
X40550Y39300
X73050Y34300
X83050Y34300
X94300Y51800
X105550Y68050
X94300Y71800
X116800Y73050
X128050Y69300
X116800Y53050
X128050Y29300
X139300Y53050
X139300Y73050
X150550Y71800
X150550Y31800
X105550Y28050
X45550Y203050
X30550Y203050
X30550Y243050
X30550Y258050
X40550Y258050
X45550Y243050
X40550Y278050
X30550Y278050
T03
X29300Y20550
X46800Y20550
X61800Y20550
X78050Y20550
X95550Y20550
X119300Y20550
X140550Y20550
T04
X138050Y90550
X69300Y90550
X16800Y278050
X158050Y278050
T05
X31800Y184300
X31800Y166800
M30
